<svg width="300" height="172" viewBox="0 0 300 172" fill="none" xmlns="http://www.w3.org/2000/svg">
<g clip-path="url(#clip0_1_782)">
<path opacity="0.1" d="M180.346 123.829C186.142 123.498 193.332 119.567 198.923 117.829C205.54 115.776 212.184 113.802 218.853 111.905C242.072 105.298 265.539 99.6687 289.256 95.0166C291.469 94.5813 293.686 94.1565 295.906 93.7421C292.448 86.2688 287.09 79.8335 280.366 75.0787C280.538 73.4427 280.626 71.7989 280.628 70.1538C280.628 44.1556 259.851 23.0796 234.212 23.0796C226.319 23.0712 218.558 25.1085 211.686 28.993C193.539 17.056 169.854 9.8313 143.94 9.8313C107.116 9.8313 74.7902 24.4196 56.4729 46.3872L142.56 60.931L195.359 69.847C135.168 71.6434 74.7902 73.4292 14.7719 69.2124C6.84914 76.8784 1.83461 87.0578 0.585258 98.0111C-0.66409 108.964 1.9293 120.012 7.92221 129.265V129.265C7.92221 130.206 7.96154 131.14 8.03235 132.066C9.56119 132.504 11.0376 132.928 12.3619 133.206C33.6224 137.698 55.0192 141.456 76.5525 144.483C60.6844 154.267 41.3601 155.651 23.0559 159.795C31.9196 167.111 43.9563 171.595 57.2203 171.595H254.717C276.102 171.595 293.436 156.708 293.436 138.341C296.645 133.049 298.784 127.178 299.73 121.062C260.158 124.883 220.094 121.566 180.346 123.829Z" fill="#00BAFC"/>
<path opacity="0.1" d="M300 113.239C300.021 105.67 298.222 98.2059 294.753 91.4776C291.284 84.7494 286.248 78.954 280.07 74.5804C280.241 72.9452 280.328 71.3023 280.332 69.6582C280.332 43.6599 259.545 22.5917 233.916 22.5917C226.022 22.5833 218.26 24.6197 211.387 28.5026C193.24 16.5603 169.553 9.33301 143.638 9.33301C101.486 9.33301 65.2028 28.4633 49.1119 55.8959C48.2177 55.8435 47.3182 55.8147 46.4109 55.8147C20.7797 55.8147 -0.00521943 76.8907 -0.00521943 102.889C-0.0231847 112.072 2.63002 121.062 7.63115 128.764V128.764C7.63115 152.156 29.7089 171.118 56.9319 171.118H254.434C275.817 171.118 293.15 156.228 293.15 137.861C297.648 130.437 300.017 121.919 300 113.239V113.239Z" fill="#00BAFC"/>
<path d="M245.004 84.3985C244.629 84.1107 244.189 83.9181 243.724 83.8373C243.233 83.7246 242.733 83.6538 242.234 83.5751L235.778 82.6442C235.126 82.5232 234.462 82.4879 233.801 82.5393C233.469 82.5665 233.146 82.6593 232.851 82.8123C232.556 82.9654 232.294 83.1757 232.08 83.4309C231.888 83.6683 231.783 83.9644 231.781 84.27C231.817 84.5776 231.917 84.8742 232.075 85.1407C232.138 85.2652 232.191 85.394 232.235 85.5262C232.297 85.8228 232.374 86.116 232.466 86.4046C232.494 86.4671 232.532 86.5254 232.576 86.5777C232.577 86.5926 232.577 86.6075 232.576 86.6223C232.505 86.9842 232.733 87.3618 232.631 87.7106C232.542 88.0095 232.251 88.1905 232.067 88.4396C231.945 88.6163 231.877 88.8252 231.872 89.0401C231.868 89.2551 231.926 89.4667 232.041 89.6485C232.238 89.9527 232.594 90.1599 232.697 90.5087C232.83 90.9676 232.469 91.4108 232.146 91.7648C231.553 92.4165 231.004 93.1078 230.504 93.8338C230.364 94.0124 230.273 94.2251 230.242 94.4501C230.213 94.9064 230.651 95.3076 230.575 95.7613C230.515 96.1179 230.166 96.3356 229.865 96.548C228.75 97.2823 227.856 98.4623 227.767 99.7971C227.48 97.6734 226.601 95.6737 225.228 94.0279C224.853 93.5769 224.441 93.1232 224.287 92.5515C224.229 92.3234 224.219 92.0795 224.14 91.8592C223.878 91.1643 223.044 90.8653 222.679 90.2255C222.417 89.7744 222.417 89.1949 222.092 88.7989C221.767 88.4029 221.255 88.3137 220.975 87.9309C220.835 87.6715 220.715 87.4014 220.618 87.1232C220.5 86.8963 220.335 86.6976 220.133 86.541C220.094 86.5101 220.054 86.4812 220.012 86.4545C220.056 86.4155 220.091 86.3678 220.115 86.3145C220.139 86.2612 220.151 86.2035 220.151 86.145C220.151 85.8382 219.847 85.6363 219.582 85.4842C219.241 85.2901 218.908 85.0803 218.583 84.8627C218.938 84.6975 219.245 84.4459 219.477 84.1311C219.768 83.6613 219.889 83.1057 219.818 82.5576C219.8 82.1153 219.635 81.6916 219.349 81.3539C219.184 81.1782 218.976 81.0524 218.803 80.8872C218.355 80.4492 218.203 79.8015 218.017 79.2036C217.77 78.4169 217.385 77.5908 216.666 77.1739C216.32 76.972 215.916 76.8776 215.578 76.6651C215.24 76.4527 214.956 76.0515 215.074 75.666C215.153 75.4038 215.397 75.2228 215.562 74.9999C215.759 74.7117 215.835 74.3573 215.773 74.0137C215.71 73.67 215.515 73.3648 215.229 73.1643C215.035 73.041 214.796 72.9335 214.757 72.708C214.605 72.6685 214.468 72.5871 214.36 72.473C214.252 72.3589 214.179 72.2167 214.149 72.0629C214.09 71.7545 214.09 71.4377 214.149 71.1293C214.217 70.6415 214.284 70.1555 214.351 69.6713C214.466 69.7193 214.59 69.744 214.715 69.744C214.84 69.744 214.964 69.7193 215.08 69.6713C215.306 70.0395 215.57 70.384 215.866 70.6992C216.665 71.6422 217.287 72.7216 217.702 73.8854C217.851 74.305 218.004 74.7744 218.392 74.9973C218.525 75.0734 218.677 75.1127 218.809 75.194C218.97 75.3067 219.109 75.4491 219.218 75.6136C219.532 76.0305 219.847 76.4449 220.159 76.8618L220.175 76.9248C220.183 76.9617 220.197 76.9971 220.217 77.0296C220.275 77.095 220.355 77.1362 220.442 77.145C221.407 77.3679 222.49 77.5725 223.327 77.0454C224.082 76.5734 224.413 75.6398 225.052 75.0157C225.506 74.5725 226.149 74.229 226.277 73.6048C226.124 73.5576 225.973 73.5024 225.826 73.4396C225.957 73.3085 226.088 73.1564 226.267 72.9833C226.526 72.7297 226.759 72.4512 226.964 72.152C227.186 71.7829 227.362 71.3885 227.489 70.9772C227.994 69.5366 228.501 68.0952 229.01 66.6529C229.251 65.9711 229.492 65.284 229.796 64.6206C230.111 63.902 230.483 63.2123 230.827 62.5069C231.714 60.6723 232.398 58.7467 232.867 56.7639C232.95 56.4934 232.978 56.2089 232.948 55.9274C232.875 55.4737 232.531 55.1171 232.204 54.7945C231.874 54.4377 231.498 54.1264 231.087 53.8688C230.88 53.7402 230.649 53.6541 230.409 53.6153C230.169 53.5766 229.923 53.5861 229.686 53.6433C229.015 53.84 228.593 54.527 228.438 55.2167C228.283 55.9064 228.341 56.6171 228.275 57.3146C228.181 58.3242 227.835 59.2998 227.751 60.312C227.706 60.8968 227.751 61.4894 227.68 62.0742C227.551 62.8396 227.284 63.5752 226.893 64.2456C226.043 65.8443 224.892 67.2637 223.503 68.4256C223.343 68.5594 223.177 68.6879 223.02 68.8321C223.02 68.7193 223.038 68.604 223.054 68.4912C222.94 68.5209 222.829 68.5604 222.721 68.6092C222.734 68.4768 222.721 68.343 222.682 68.2158C222.472 67.5891 221.538 67.4291 221.371 66.7919C221.343 66.6343 221.328 66.4747 221.326 66.3146C221.271 65.7561 220.891 65.284 220.76 64.7412C220.639 64.2403 220.731 63.6922 220.497 63.2281C220.299 62.9378 220.064 62.6736 219.8 62.4414C219.485 62.0814 219.258 61.6532 219.136 61.1905C219.102 61.062 219.071 60.9283 219.034 60.7998C219.074 60.5088 219.042 60.2125 218.94 59.937C218.701 59.3443 218.085 58.9641 217.862 58.3636C217.689 57.8968 217.765 57.3146 217.437 56.9527C217.263 56.7798 217.05 56.6512 216.816 56.5777C215.615 56.1103 214.356 55.8129 213.073 55.694C212.355 55.6284 211.563 55.5917 211.049 55.0856C210.448 54.4982 210.42 53.4414 209.717 52.9877C209.098 52.5865 208.222 52.8828 207.742 53.4466C207.67 53.5295 207.603 53.6171 207.543 53.7089C207.455 53.3574 207.437 52.9923 207.488 52.6337C207.488 52.5445 207.506 52.4527 207.514 52.3714C208.698 51.9845 209.706 51.1888 210.357 50.1267C210.357 50.1267 210.357 50.1267 210.357 50.1424L210.388 50.2237C210.464 50.4151 210.585 50.5987 210.763 50.6197C210.882 50.6183 210.996 50.5767 211.088 50.5017C211.246 50.3917 211.392 50.2651 211.524 50.1241C211.59 50.0506 211.653 49.9746 211.712 49.8959C211.833 49.7321 211.937 49.5564 212.022 49.3714C212.152 49.0931 212.24 48.7971 212.284 48.4929C212.331 48.1887 212.337 47.8767 212.389 47.5725C212.438 47.337 212.502 47.1049 212.58 46.8776C212.607 46.8015 212.633 46.7255 212.656 46.6494C212.68 46.5734 212.714 46.4711 212.74 46.3872C212.905 45.8478 212.993 45.2883 213.003 44.7246C213.003 44.6302 213.003 44.5358 213.003 44.4414C212.993 44.0735 212.91 43.7112 212.759 43.3757C212.608 43.0403 212.391 42.7384 212.122 42.4877C211.67 42.1179 211.073 41.9632 210.742 41.4623C210.527 41.1267 210.48 40.694 210.354 40.3006C210.218 39.8299 209.953 39.4067 209.588 39.079C209.224 38.7513 208.775 38.5322 208.293 38.4466C207.712 38.3829 207.128 38.5433 206.662 38.895V38.895L206.625 38.9239C206.365 39.1225 206.144 39.3679 205.975 39.6477C205.628 39.5522 205.311 39.372 205.052 39.1232C204.789 38.8793 204.587 38.5725 204.323 38.3365C204.075 38.1098 203.771 37.9537 203.443 37.8845C203.114 37.8153 202.773 37.8356 202.455 37.9431C202.128 38.0743 201.836 38.2813 201.604 38.547C201.372 38.8128 201.206 39.1298 201.121 39.472C200.976 40.0122 201.003 40.6337 200.701 41.0847C200.468 41.4361 200.085 41.6092 199.817 41.9291C199.651 42.1317 199.538 42.3722 199.487 42.6293V42.6293C199.455 42.7731 199.44 42.92 199.442 43.0672V43.0672C199.442 43.1328 199.442 43.1984 199.458 43.2613C199.458 43.2613 199.458 43.2823 199.458 43.2928C199.467 43.3646 199.482 43.4356 199.503 43.5052V43.5052C199.577 43.771 199.711 44.0166 199.893 44.2237C200.066 44.422 200.283 44.5781 200.525 44.68C200.625 44.7186 200.726 44.7511 200.83 44.777L201.142 44.8478L201.252 44.8741C200.875 45.5811 200.666 46.3653 200.641 47.166C200.615 47.9667 200.774 48.7625 201.105 49.4921C201.105 49.5655 201.087 49.6389 201.079 49.7123C201.036 50.7449 201.082 51.7793 201.215 52.8041C201.252 53.2106 201.273 53.659 201.024 53.9816C200.91 54.1085 200.783 54.2219 200.643 54.3199C200.785 54.1363 200.929 53.9554 201.076 53.7744C200.706 53.402 200.122 53.3548 199.597 53.3915C198.582 53.4674 197.597 53.7684 196.712 54.2727C196.125 54.6109 195.522 55.0594 194.851 54.9807C194.455 54.9361 194.064 54.7185 193.678 54.8234C193.462 54.912 193.259 55.0322 193.078 55.18C192.934 55.2829 192.761 55.3363 192.585 55.3321C192.173 54.826 191.536 54.4825 191.043 54.0707C190.482 53.5713 189.968 53.0208 189.509 52.4265C188.659 51.4012 187.812 50.3732 186.978 49.3373C186.275 48.4667 185.554 47.5253 185.431 46.4108C185.418 46.3002 185.412 46.189 185.413 46.0777C185.43 45.5482 185.496 45.0214 185.612 44.5043C185.643 44.3795 185.643 44.2489 185.612 44.1241C185.533 43.8618 185.232 43.7648 184.972 43.7071C185.006 43.5052 185.03 43.298 185.043 43.1013C185.19 40.8461 185.03 38.5541 185.507 36.3461C185.688 35.4964 185.984 34.6363 186.595 34.02C187.552 33.0524 189.155 32.819 189.889 31.673C190.503 30.7185 190.259 29.3679 189.488 28.5262C188.717 27.6844 187.529 27.3408 186.399 27.3828C186.081 27.3719 185.768 27.4559 185.499 27.6241C185.248 27.8475 185.059 28.1333 184.954 28.4527L183.829 31.1879C183.503 31.9 183.227 32.6343 183.005 33.3854C182.691 34.534 182.62 35.7456 182.371 36.9047C182.371 37.7963 181.796 38.9082 181.482 39.729C181.13 40.652 180.75 41.5646 180.433 42.5061C180.354 42.7421 180.079 43.4422 179.908 44.0795C179.844 44.117 179.784 44.1619 179.73 44.2132C179.593 44.3887 179.469 44.5736 179.358 44.7665C179.119 45.0812 178.731 45.2491 178.469 45.5533C178.206 45.8574 178.151 46.416 178.516 46.5681C178.59 46.593 178.666 46.6097 178.744 46.6179C178.792 46.622 178.839 46.6299 178.885 46.6415C179.279 46.7517 179.434 47.2473 179.376 47.6564C179.318 48.0655 179.114 48.4431 179.08 48.8522C179.009 49.576 179.434 50.2499 179.843 50.8583C180.266 51.5178 180.734 52.1478 181.243 52.7438C181.613 53.1582 182.03 53.5305 182.402 53.9291C183.821 55.3872 184.948 57.0917 186.223 58.6756C186.681 59.2734 187.203 59.8203 187.778 60.3068C188.154 60.6006 188.547 60.8712 188.955 61.1171L191.148 62.5069C191.396 62.6891 191.678 62.8218 191.976 62.8977C192.074 62.9108 192.173 62.9108 192.27 62.8977C192.283 62.9632 192.294 63.0262 192.309 63.0917C192.48 63.7788 192.855 64.4029 192.897 65.1031C192.939 65.8032 192.876 66.5192 192.926 67.2272C192.973 67.8802 193.117 68.5384 193.154 69.1809C193.227 70.4186 192.923 71.6407 192.629 72.8522C192.186 74.6249 191.919 76.4344 191.056 78.0419C190.815 78.4851 190.531 78.9361 190.531 79.4422C190.531 79.5026 190.531 79.5655 190.547 79.6258L190.154 79.8487C190.038 79.9143 189.923 79.9798 189.818 80.048C189.32 80.3732 188.788 80.7324 188.583 81.2936C188.418 81.7473 188.494 82.2665 188.295 82.7071C188.285 82.7269 188.275 82.7461 188.263 82.7648C188.053 83.1739 187.636 83.4781 187.542 83.9265C187.471 84.27 187.608 84.6345 187.542 84.9755C187.542 84.9755 187.542 84.9755 187.542 84.9886C187.482 85.1598 187.435 85.3351 187.4 85.513C187.398 85.5712 187.403 85.6294 187.416 85.6861C187.466 85.8848 187.576 86.0633 187.731 86.1975C187.825 86.2882 187.928 86.3698 188.038 86.4414C188.149 86.5148 188.265 86.583 188.384 86.6459L188.452 86.6826C188.552 86.7351 188.651 86.7849 188.753 86.8321L188.822 86.8609C188.94 86.9134 189.06 86.9606 189.181 87.0026L189.265 87.0288C189.359 87.0602 189.456 87.0891 189.553 87.1127L189.619 87.1337L189.679 87.1468L189.941 87.2019L190.038 87.2202C190.154 87.2394 190.272 87.2552 190.392 87.2674H190.497C190.587 87.2674 190.673 87.2805 190.76 87.2831H190.883C190.975 87.2831 191.064 87.2831 191.145 87.2831H191.24C191.363 87.2831 191.486 87.2648 191.609 87.2491H191.649C191.759 87.2333 191.869 87.215 191.979 87.1914L192.063 87.173C192.165 87.1494 192.267 87.1258 192.37 87.0943L192.425 87.0786C192.548 87.0419 192.671 87.0026 192.792 86.9554C193.209 86.7838 193.614 86.5831 194.003 86.3548C194.266 86.2106 194.528 86.0637 194.79 85.93C194.985 85.832 195.184 85.7445 195.388 85.6678C195.884 85.4559 196.424 85.366 196.962 85.4055C197.227 85.4417 197.49 85.4951 197.748 85.5655C197.748 85.5943 197.748 85.6232 197.748 85.652C197.962 86.9108 198.172 88.1695 198.38 89.4283C198.724 89.1811 199.087 88.9627 199.466 88.7753C199.395 88.9653 199.348 89.1636 199.327 89.3653C199.311 89.5214 199.311 89.6787 199.327 89.8347C199.351 90.0838 199.403 90.3592 199.253 90.5559C199.162 90.6765 198.991 90.7447 198.941 90.8811C198.905 91.0205 198.896 91.1657 198.915 91.3085C198.904 91.4715 198.836 91.6252 198.721 91.7417C198.606 91.8582 198.454 91.9296 198.291 91.9431C198.366 92.1542 198.368 92.3844 198.296 92.5966C198.224 92.8088 198.083 92.9906 197.895 93.1127C197.785 93.1655 197.683 93.2325 197.591 93.312C197.501 93.4279 197.441 93.5637 197.415 93.708C197.069 95.0066 196.356 96.1782 195.362 97.083C194.989 97.376 194.649 97.7083 194.347 98.0742C194.161 98.3576 194.007 98.6611 193.888 98.979C193.189 100.689 192.479 102.399 191.759 104.111C191.36 105.068 190.972 106.041 190.846 107.072C190.531 109.899 188.014 112.295 188.486 115.101C188.581 115.802 188.864 116.464 189.304 117.018C189.829 117.65 190.615 118.012 191.402 118.306C193.424 119.093 195.556 119.523 197.68 119.955L201.016 120.64C201.67 120.79 202.334 120.895 203.003 120.954C203.809 121.01 204.635 120.933 205.419 121.138C205.904 121.264 206.368 121.497 206.869 121.524C207.299 121.547 207.829 121.455 208.083 121.807C208.337 122.158 208.141 122.622 208.382 122.934C208.77 123.43 209.717 122.934 210.139 123.401C210.254 123.58 210.343 123.776 210.401 123.981C210.465 124.107 210.555 124.22 210.663 124.311C210.689 124.459 210.7 124.609 210.695 124.76C210.64 125.369 210.513 125.969 210.317 126.548C210.003 127.613 209.689 128.678 209.376 129.745C209.256 130.121 209.169 130.507 209.114 130.899C209.094 131.089 209.094 131.28 209.114 131.47C209.169 132.05 209.502 132.648 210.055 132.836C210.484 132.95 210.941 132.894 211.33 132.679C211.705 132.483 212.057 132.246 212.379 131.971C212.959 131.532 213.469 131.007 213.892 130.413C215.203 128.452 214.778 125.798 215.698 123.629C216.309 122.182 217.5 121.007 217.896 119.481C217.989 119.19 218 118.88 217.927 118.584C217.762 118.059 217.204 117.76 216.682 117.572H216.658C216.23 117.419 215.792 117.294 215.347 117.197C215.237 117.173 215.124 117.155 215.011 117.136C214.762 116.933 214.563 116.675 214.432 116.381C214.411 116.225 214.37 116.072 214.309 115.927C214.267 115.865 214.211 115.813 214.145 115.777C214.079 115.74 214.006 115.72 213.931 115.718C213.669 115.691 213.317 115.786 213.031 115.765C212.447 115.723 212.059 115.149 211.534 114.884C211.01 114.619 210.441 114.684 209.882 114.724C209.682 114.751 209.479 114.739 209.284 114.687C209.051 114.58 208.838 114.433 208.655 114.254C208.332 114.003 207.955 113.83 207.554 113.75C207.153 113.669 206.739 113.683 206.344 113.79C206.093 113.891 205.828 113.952 205.558 113.968C205.046 113.94 204.684 113.483 204.307 113.137C203.274 112.19 201.802 111.941 200.549 111.32C200.357 111.248 200.197 111.111 200.098 110.932C199.954 110.575 200.279 110.218 200.573 109.975L202.728 108.184C205.088 106.222 208.038 104.746 209.135 101.869C209.249 101.483 209.426 101.119 209.659 100.791C209.744 100.691 209.842 100.603 209.95 100.529C210.427 100.22 211.005 100.107 211.563 100.214C212.243 100.366 212.888 100.648 213.462 101.043C214.4 101.611 215.314 102.223 216.202 102.878C217.082 103.507 217.918 104.194 218.706 104.934C220.083 106.246 221.229 107.801 222.511 109.214C223.794 110.628 225.26 111.947 227.04 112.623C228.821 113.3 230.974 113.271 232.503 112.135C234.267 110.824 234.834 108.48 235.28 106.329C236.263 105.38 236.559 103.935 237.039 102.658C237.341 101.848 237.726 101.085 238.052 100.277C238.44 99.3277 238.744 98.347 239.048 97.3688C239.393 96.3866 239.627 95.3689 239.746 94.3347C239.872 92.701 239.434 90.9623 239.892 89.4283C240.498 89.2945 241.049 88.9536 241.644 88.7543C242.531 88.4632 243.48 88.5104 244.419 88.5157H244.479C244.803 88.5501 245.128 88.4733 245.402 88.298C245.717 88.0358 245.767 87.5873 245.782 87.1809C245.819 86.1765 245.756 85.0489 245.004 84.3985ZM207.008 39.666C206.791 39.7197 206.567 39.7356 206.344 39.7132L207.008 39.666Z" fill="url(#paint0_linear_1_782)"/>
<path d="M208.041 56.2552C207.724 56.5249 207.351 56.7226 206.95 56.8347L205.091 57.5008C204.081 57.8627 203.027 58.2272 201.962 58.0961C201.367 58.0227 198.816 57.6477 198.43 57.1835C197.843 56.465 199.901 55.4082 200.604 54.8024C200.763 54.6879 200.911 54.5579 201.045 54.4143C201.307 54.0944 201.273 53.6459 201.236 53.2421C201.103 52.219 201.057 51.1864 201.1 50.1555C201.12 49.9098 201.155 49.6655 201.205 49.4239C201.467 48.2176 202.589 48.6582 203.475 48.9781C204.542 49.3247 205.574 49.7716 206.557 50.3129C206.856 50.4672 207.116 50.6878 207.317 50.958C207.705 51.5454 207.551 52.3164 207.488 53.0559C207.433 53.6302 207.435 54.1809 207.795 54.5978C207.975 54.7573 208.141 54.9328 208.29 55.1223C208.374 55.3132 208.395 55.5258 208.35 55.7294C208.306 55.933 208.197 56.1172 208.041 56.2552Z" fill="#BE6F72"/>
<path d="M182.358 37.3556C182.62 36.1939 182.677 34.9955 182.992 33.8443C183.214 33.0957 183.489 32.364 183.816 31.6546L184.972 28.9562C185.078 28.6375 185.266 28.3525 185.517 28.1301C185.787 27.9631 186.1 27.8792 186.417 27.8888C187.547 27.8469 188.735 28.1983 189.506 29.0296C190.277 29.8609 190.521 31.2061 189.907 32.1581C189.173 33.304 187.571 33.5348 186.614 34.4999C186.003 35.1161 185.706 35.9736 185.525 36.8207C185.048 39.0235 185.208 41.3075 185.061 43.5575C185.014 44.2577 184.878 45.0575 184.274 45.4194C183.91 45.5981 183.505 45.6768 183.1 45.6476L181.379 45.6764C181.091 45.6764 180.045 45.8574 179.853 45.6397C179.517 45.2595 180.283 43.3661 180.422 42.9439C180.732 42.0077 181.112 41.0951 181.471 40.1747C181.783 39.3539 182.358 38.2446 182.358 37.3556Z" fill="#BE6F72"/>
<path d="M217.878 119.741C217.482 121.256 216.291 122.436 215.68 123.881C214.76 126.045 215.174 128.691 213.873 130.647C213.451 131.241 212.941 131.767 212.36 132.207C212.038 132.481 211.686 132.718 211.311 132.913C210.922 133.127 210.466 133.184 210.037 133.07C209.483 132.881 209.15 132.283 209.095 131.706C209.076 131.517 209.076 131.327 209.095 131.137C209.15 130.747 209.238 130.362 209.357 129.986C209.672 128.925 209.986 127.862 210.299 126.797C210.495 126.22 210.622 125.621 210.677 125.014C210.711 124.353 210.291 123.493 210.469 122.877C210.551 122.599 210.855 122.352 210.994 122.119C211.191 121.783 211.343 121.422 211.445 121.046C211.66 120.315 211.807 119.533 212.258 118.917C212.552 118.552 212.896 118.229 213.281 117.96C213.564 117.711 213.896 117.525 214.256 117.412C214.605 117.35 214.963 117.367 215.305 117.462C215.75 117.557 216.188 117.681 216.616 117.834H216.64C217.164 118.023 217.72 118.314 217.885 118.844C217.966 119.138 217.963 119.448 217.878 119.741V119.741Z" fill="#3F3D56"/>
<path d="M245.78 87.5009C245.764 87.9073 245.714 88.361 245.399 88.6154C245.125 88.7907 244.8 88.8675 244.476 88.833H244.406C243.469 88.833 242.518 88.7806 241.631 89.0717C240.957 89.2946 240.338 89.7037 239.636 89.785C238.668 89.8951 237.758 89.3654 236.9 88.9038C236.093 88.4689 235.264 88.075 234.417 87.7238C233.861 87.4956 232.726 87.3488 232.458 86.7404C232.366 86.4525 232.289 86.1602 232.227 85.8645C232.183 85.7323 232.13 85.6035 232.067 85.479C231.91 85.2133 231.81 84.9176 231.774 84.611C231.775 84.3054 231.88 84.0093 232.073 83.7718C232.287 83.5186 232.548 83.3101 232.843 83.1585C233.138 83.0068 233.46 82.9149 233.79 82.8881C234.451 82.8367 235.116 82.872 235.768 82.993L242.224 83.9213C242.722 83.9921 243.223 84.0629 243.713 84.1836C244.179 84.2643 244.618 84.4569 244.993 84.7447C245.756 85.3846 245.819 86.5096 245.78 87.5009Z" fill="#3F3D56"/>
<path d="M240.105 89.1793C239.318 90.8393 239.885 92.8034 239.743 94.6391C239.624 95.6707 239.39 96.6857 239.045 97.6653C238.741 98.6408 238.437 99.619 238.049 100.566C237.724 101.352 237.338 102.139 237.037 102.942C236.557 104.221 236.25 105.661 235.277 106.613C234.831 108.758 234.265 111.102 232.5 112.403C230.966 113.536 228.829 113.575 227.038 112.891C225.247 112.206 223.791 110.895 222.509 109.482C221.226 108.068 220.08 106.529 218.704 105.213C217.915 104.472 217.076 103.786 216.194 103.159C215.306 102.514 214.392 101.907 213.454 101.339C212.879 100.946 212.235 100.666 211.555 100.513C210.997 100.406 210.419 100.519 209.942 100.828C209.834 100.902 209.736 100.99 209.651 101.09C209.418 101.417 209.241 101.78 209.127 102.165C208.025 105.034 205.07 106.508 202.71 108.464L200.554 110.25C200.26 110.494 199.935 110.851 200.08 111.205C200.179 111.384 200.339 111.521 200.531 111.593C201.784 112.212 203.255 112.461 204.288 113.405C204.666 113.751 205.028 114.207 205.539 114.233C205.809 114.218 206.075 114.158 206.326 114.058C206.721 113.951 207.135 113.937 207.535 114.017C207.936 114.097 208.313 114.269 208.636 114.519C208.82 114.698 209.033 114.845 209.266 114.952C209.461 115.004 209.664 115.016 209.864 114.989C210.422 114.949 211.015 114.9 211.516 115.149C212.017 115.398 212.428 115.985 213.013 116.027C213.299 116.048 213.64 115.954 213.913 115.98C213.988 115.982 214.061 116.003 214.127 116.039C214.192 116.076 214.249 116.127 214.29 116.19C214.351 116.334 214.393 116.486 214.413 116.641C214.521 117.011 214.883 117.236 215.119 117.54C215.481 118.007 215.533 118.642 215.497 119.232C215.378 121.077 214.555 122.806 213.199 124.062C212.814 124.456 212.323 124.729 211.786 124.849C211.517 124.905 211.237 124.875 210.985 124.764C210.734 124.652 210.524 124.465 210.385 124.227C210.327 124.023 210.239 123.829 210.123 123.65C209.701 123.186 208.754 123.679 208.366 123.184C208.125 122.874 208.298 122.379 208.067 122.059C207.837 121.739 207.281 121.796 206.853 121.778C206.352 121.752 205.888 121.516 205.403 121.393C204.616 121.188 203.793 121.264 202.988 121.209C202.319 121.15 201.655 121.045 201 120.894L197.664 120.213C195.54 119.78 193.408 119.342 191.386 118.568C190.613 118.275 189.834 117.913 189.288 117.283C188.849 116.73 188.566 116.069 188.47 115.369C187.996 112.571 190.513 110.179 190.83 107.36C190.943 106.332 191.355 105.362 191.743 104.407C192.455 102.701 193.164 100.994 193.872 99.2859C193.987 98.9679 194.136 98.6636 194.318 98.3786C194.62 98.0135 194.96 97.682 195.333 97.39C196.327 96.4882 197.04 95.3192 197.386 94.0228C197.412 93.8786 197.472 93.7427 197.562 93.6268C197.655 93.549 197.757 93.483 197.866 93.4302C198.054 93.3082 198.194 93.1269 198.266 92.9152C198.338 92.7036 198.337 92.4739 198.262 92.2632C198.425 92.2497 198.578 92.1783 198.692 92.0618C198.807 91.9453 198.876 91.7916 198.886 91.6286C198.867 91.4866 198.876 91.3423 198.913 91.2038C198.976 91.0674 199.133 90.9992 199.225 90.8786C199.374 90.6819 199.322 90.4066 199.298 90.1601C199.282 90.004 199.282 89.8467 199.298 89.6906C199.355 89.1354 199.604 88.6172 200.001 88.2247C200.628 87.6085 201.519 87.7684 202.385 87.6216C203.248 87.4353 204.091 87.1657 204.902 86.8165C207.178 85.9199 209.573 85.3658 212.011 85.1723C214.461 84.9796 216.922 85.3715 219.191 86.3156C219.522 86.4494 219.833 86.6257 220.117 86.8401C220.319 86.9958 220.485 87.1935 220.602 87.4197C220.699 87.6973 220.818 87.9665 220.959 88.2247C221.24 88.6076 221.769 88.7309 222.076 89.0927C222.383 89.4546 222.409 90.0657 222.663 90.5141C223.028 91.1539 223.872 91.4503 224.124 92.1452C224.203 92.3655 224.213 92.6067 224.271 92.8349C224.413 93.4066 224.837 93.8576 225.212 94.3087C226.587 95.953 227.467 97.9534 227.751 100.078C227.835 98.7483 228.729 97.5709 229.849 96.8366C230.15 96.6399 230.499 96.4223 230.559 96.0656C230.636 95.6146 230.198 95.2134 230.226 94.7545C230.258 94.5304 230.349 94.3187 230.489 94.1408C230.988 93.4165 231.537 92.7269 232.13 92.077C232.453 91.723 232.815 91.2903 232.681 90.8235C232.579 90.4747 232.222 90.2702 232.025 89.966C231.911 89.7846 231.852 89.5735 231.857 89.3589C231.861 89.1443 231.929 88.9359 232.052 88.7597C232.235 88.5106 232.526 88.3296 232.615 88.0333C232.718 87.6845 232.49 87.3069 232.56 86.9476C232.656 86.6599 232.847 86.4132 233.101 86.2475C233.448 85.9307 233.844 85.6705 234.273 85.4765C234.965 85.2142 235.736 85.3113 236.47 85.4136C237.698 85.584 239.074 85.8462 239.767 86.8742C240.21 87.5167 240.435 88.4922 240.105 89.1793Z" fill="#65617D"/>
<path opacity="0.1" d="M245.78 87.5008C245.764 87.9073 245.714 88.361 245.399 88.6154C245.125 88.7907 244.8 88.8674 244.476 88.833H244.406C244.513 88.2876 245.177 87.9755 245.292 87.4222C245.312 87.2522 245.296 87.08 245.247 86.9162C245.197 86.7525 245.114 86.6007 245.004 86.4703C244.442 85.7124 243.54 85.2928 242.643 84.986C240.11 84.1173 237.395 83.9142 234.76 84.396C234.044 84.5126 233.347 84.7271 232.689 85.0332C232.471 85.1697 232.261 85.3185 232.059 85.479C231.902 85.2133 231.802 84.9176 231.766 84.611C231.767 84.3054 231.872 84.0093 232.065 83.7718C232.279 83.5186 232.541 83.3101 232.835 83.1585C233.13 83.0068 233.452 82.9149 233.782 82.8881C234.443 82.8367 235.108 82.872 235.76 82.993L242.216 83.9213C242.714 83.9921 243.215 84.0629 243.705 84.1835C244.171 84.2643 244.61 84.4569 244.985 84.7447C245.756 85.3846 245.819 86.5096 245.78 87.5008Z" fill="black"/>
<path opacity="0.1" d="M217.878 119.74C217.482 121.256 216.291 122.436 215.68 123.881C214.76 126.045 215.174 128.691 213.873 130.647C213.451 131.241 212.941 131.767 212.36 132.207C212.038 132.481 211.686 132.718 211.311 132.913C210.922 133.127 210.466 133.183 210.037 133.07C209.483 132.881 209.15 132.283 209.095 131.706C209.076 131.517 209.076 131.326 209.095 131.137L209.111 131.179C209.339 131.73 209.712 132.307 210.299 132.404C210.519 132.42 210.741 132.39 210.949 132.316C211.158 132.243 211.349 132.127 211.51 131.976C212.376 131.282 212.879 130.246 213.359 129.247C213.735 128.526 214.032 127.767 214.246 126.983C214.35 126.538 214.4 126.081 214.508 125.636C215.006 123.469 216.703 121.702 217.078 119.507C217.108 119.356 217.115 119.201 217.099 119.048C217.049 118.848 216.973 118.656 216.873 118.476C216.782 118.273 216.715 118.06 216.674 117.842C217.198 118.031 217.754 118.322 217.92 118.851C217.987 119.146 217.973 119.454 217.878 119.74Z" fill="black"/>
<path opacity="0.1" d="M213.918 115.98C213.675 116.615 213.267 117.172 212.735 117.595C211.989 118.164 211.115 118.542 210.189 118.697C209.758 118.807 209.306 118.801 208.878 118.681C208.295 118.479 207.876 117.934 207.281 117.776C206.856 117.661 206.399 117.763 205.969 117.7C205.196 117.593 204.595 117.003 203.971 116.531C202.059 115.094 199.55 114.63 197.638 113.192C197.553 113.14 197.483 113.067 197.434 112.98C197.397 112.886 197.383 112.784 197.394 112.684C197.401 111.812 197.597 110.952 197.969 110.164C198.273 109.613 198.635 109.097 199.049 108.624C200.761 106.526 202.482 104.413 204.532 102.643C205.392 101.9 206.331 101.208 207.417 100.873C208.02 100.686 209.211 100.511 209.945 100.825C209.837 100.899 209.739 100.987 209.654 101.088C209.42 101.414 209.243 101.778 209.129 102.163C208.025 105.034 205.07 106.508 202.71 108.464L200.554 110.25C200.26 110.494 199.935 110.851 200.08 111.205C200.179 111.384 200.339 111.521 200.531 111.593C201.784 112.212 203.255 112.461 204.288 113.405C204.666 113.751 205.028 114.207 205.539 114.234C205.809 114.218 206.075 114.158 206.326 114.058C206.721 113.951 207.135 113.937 207.535 114.017C207.936 114.097 208.313 114.269 208.636 114.519C208.82 114.698 209.033 114.845 209.266 114.952C209.461 115.004 209.664 115.016 209.864 114.989C210.422 114.949 211.015 114.9 211.516 115.149C212.017 115.398 212.428 115.985 213.013 116.027C213.304 116.048 213.645 115.949 213.918 115.98Z" fill="black"/>
<path d="M189.8 80.389C189.302 80.7089 188.772 81.0708 188.567 81.6268C188.399 82.0804 188.478 82.5997 188.276 83.0402C188.074 83.4808 187.621 83.7876 187.521 84.2596C187.45 84.6032 187.589 84.9651 187.521 85.3086C187.462 85.4872 187.413 85.6694 187.377 85.854C187.351 86.2448 187.686 86.5621 188.014 86.7797C188.712 87.2337 189.506 87.5176 190.334 87.6087C191.162 87.6997 191.999 87.5955 192.779 87.3042C193.479 87.042 194.111 86.6145 194.782 86.2789C195.437 85.9019 196.186 85.7199 196.941 85.7544C197.373 85.8016 197.788 85.9589 198.22 86.0166C198.434 86.0589 198.655 86.0485 198.864 85.9863C199.072 85.9242 199.263 85.8122 199.419 85.66C199.552 85.4755 199.642 85.2629 199.681 85.0385C200.045 83.5988 199.88 82.0726 199.534 80.625C199.188 79.1775 198.663 77.785 198.294 76.3453C198.031 75.278 197.83 74.1845 197.392 73.1749C196.954 72.1652 196.217 71.2264 195.186 70.8409C195.105 70.801 195.013 70.7891 194.924 70.8068C194.858 70.8345 194.799 70.8777 194.753 70.9327C193.938 71.7967 193.324 72.83 192.955 73.9589C192.543 75.2151 192.43 76.5472 192.052 77.8086C191.89 78.3331 191.68 79.0359 191.266 79.4371C190.851 79.8383 190.269 80.0874 189.8 80.389Z" fill="#3F3D56"/>
<path opacity="0.1" d="M199.689 85.0306C199.645 85.2558 199.551 85.4682 199.413 85.6521C199.258 85.8048 199.067 85.917 198.858 85.9787C198.649 86.0404 198.428 86.0498 198.215 86.0061C197.785 85.9537 197.371 85.7937 196.938 85.7439C196.183 85.709 195.434 85.891 194.78 86.2684C194.108 86.604 193.469 87.021 192.774 87.2911C191.757 87.6766 190.646 87.7398 189.593 87.472C189.033 87.3314 188.501 87.0973 188.019 86.7797C187.689 86.5647 187.356 86.2553 187.382 85.854C187.419 85.6702 187.467 85.489 187.526 85.3112C187.594 84.9677 187.458 84.6058 187.526 84.2622C187.626 83.7902 188.082 83.4755 188.281 83.0402C188.481 82.6049 188.405 82.083 188.57 81.6294C188.774 81.0708 189.307 80.7115 189.805 80.389C190.303 80.0664 190.896 79.8199 191.295 79.4292C191.346 79.3684 191.393 79.3035 191.434 79.2351C191.721 78.7918 191.932 78.3034 192.058 77.7902C192.443 76.5262 192.548 75.1967 192.957 73.9379C193.328 72.8099 193.943 71.7776 194.759 70.9143C194.802 70.858 194.86 70.8146 194.927 70.7885C195.015 70.7704 195.107 70.7815 195.189 70.8199C196.217 71.208 196.954 72.1468 197.394 73.1565C197.835 74.1661 198.021 75.2544 198.296 76.3243C198.663 77.764 199.191 79.1617 199.537 80.6066C199.883 82.0516 200.053 83.5883 199.689 85.0306Z" fill="black"/>
<path opacity="0.1" d="M207.488 53.048C206.255 53.4398 204.92 53.362 203.741 52.8295C202.562 52.297 201.621 51.3475 201.1 50.1634C201.12 49.9176 201.155 49.6733 201.205 49.4317C201.467 48.2254 202.589 48.666 203.475 48.9859C204.542 49.3325 205.574 49.7794 206.557 50.3207C206.856 50.475 207.116 50.6957 207.317 50.9658C207.705 51.5453 207.551 52.3163 207.488 53.048Z" fill="black"/>
<path d="M205.904 53.0325C208.8 53.0325 211.149 50.6843 211.149 47.7877C211.149 44.8911 208.8 42.543 205.904 42.543C203.007 42.543 200.659 44.8911 200.659 47.7877C200.659 50.6843 203.007 53.0325 205.904 53.0325Z" fill="#BE6F72"/>
<path opacity="0.1" d="M220.135 86.9815C220.135 87.4169 219.545 87.5559 219.108 87.5323C217.534 87.4405 215.995 87.0078 214.437 87.1389C212.468 87.3172 210.658 88.4055 208.684 88.5052C207.923 88.5445 207.149 88.4317 206.399 88.5707C205.429 88.7517 204.564 89.3417 203.575 89.4256C202.718 89.499 201.871 89.1765 201.013 89.2106C200.414 89.2463 199.829 89.4128 199.301 89.6983C199.358 89.143 199.607 88.6249 200.004 88.2324C200.63 87.6162 201.522 87.7761 202.387 87.6293C203.25 87.443 204.094 87.1733 204.905 86.8242C207.18 85.9276 209.576 85.3735 212.014 85.18C214.463 84.9852 216.922 85.3744 219.191 86.3155C219.522 86.4492 219.833 86.6255 220.117 86.8399C220.131 86.8857 220.138 86.9336 220.135 86.9815V86.9815Z" fill="black"/>
<path d="M203.478 57.3644L201.354 56.5777L200.457 56.2473C200.092 56.0941 199.707 55.9918 199.314 55.9431C198.286 55.8644 197.318 56.5489 196.77 57.4221C196.222 58.2954 196.015 59.3365 195.839 60.3513C195.598 61.7394 195.393 63.1328 195.226 64.5314C195.045 65.7944 194.953 67.0685 194.95 68.3443C195.011 71.5908 195.698 74.7927 196.453 77.9527C196.823 79.3538 197.102 80.7771 197.289 82.2141C197.352 82.8067 197.381 83.402 197.444 83.9973C197.512 84.666 197.622 85.3268 197.733 85.9903L198.365 89.7586C199.151 89.2001 200.045 88.7097 201.013 88.6808C201.871 88.6494 202.72 88.9693 203.575 88.8959C204.559 88.8146 205.429 88.2246 206.4 88.0436C207.15 87.9046 207.923 88.0148 208.686 87.978C210.658 87.8784 212.47 86.7875 214.437 86.6118C215.997 86.4702 217.547 86.9107 219.11 87.0025C219.545 87.0287 220.136 86.8898 220.136 86.4518C220.136 86.1476 219.831 85.9457 219.566 85.7936C218.318 85.0419 217.13 84.194 216.013 83.2578C214.98 82.4396 213.931 81.6004 213.22 80.4938C211.508 77.8321 212.095 74.2316 210.635 71.423C209.447 69.1415 210.635 66.152 210.635 63.5795C210.635 62.2971 210.635 60.999 210.333 59.7534C210.145 59.0567 209.91 58.3734 209.63 57.708L208.61 55.1249C208.589 55.0494 208.547 54.9813 208.49 54.9282C208.421 54.881 208.339 54.8563 208.256 54.8574C207.644 54.8207 207.039 55.0143 206.562 55.4003C206.082 55.791 205.775 56.3522 205.303 56.7587C204.787 57.2071 204.121 57.6004 203.478 57.3644Z" fill="#E3E8F4"/>
<path d="M206.906 55.875C207.073 55.1565 207.254 54.4091 207.734 53.8479C208.214 53.2867 209.09 52.9904 209.709 53.3916C210.412 53.8479 210.441 54.9021 211.041 55.4895C211.566 55.993 212.352 56.0323 213.066 56.0979C214.348 56.2146 215.608 56.5112 216.808 56.979C217.042 57.0516 217.255 57.1793 217.429 57.3514C217.757 57.7238 217.691 58.2955 217.854 58.7596C218.077 59.3575 218.693 59.7378 218.932 60.333C219.194 60.9939 218.932 61.7334 218.712 62.4126C218.316 63.632 218.066 64.8986 217.681 66.1233C217.295 67.3479 216.747 68.5542 215.845 69.4773C215.447 69.8864 214.854 70.264 214.33 70.0201L214.128 71.4755C214.069 71.783 214.069 72.0989 214.128 72.4065C214.158 72.5603 214.231 72.7025 214.339 72.8166C214.447 72.9307 214.584 73.0121 214.736 73.0516C214.775 73.2771 215.014 73.3846 215.208 73.5079C215.351 73.6058 215.474 73.7312 215.568 73.8769C215.663 74.0225 215.727 74.1854 215.758 74.3561C215.789 74.5269 215.786 74.7021 215.749 74.8716C215.711 75.0411 215.641 75.2015 215.541 75.3435C215.376 75.5664 215.132 75.7421 215.053 76.007C214.935 76.3899 215.216 76.7937 215.557 77.0035C215.898 77.2133 216.299 77.3103 216.645 77.5122C217.364 77.9266 217.749 78.7421 217.996 79.5341C218.179 80.132 218.331 80.7797 218.782 81.215C218.955 81.3802 219.163 81.5061 219.328 81.6792C219.614 82.0171 219.779 82.4406 219.797 82.8829C219.869 83.431 219.749 83.9871 219.456 84.4563C218.932 85.2063 217.954 85.4292 217.096 85.7675C215.704 86.3392 214.558 87.3619 213.33 88.2325C212.831 88.6351 212.242 88.912 211.613 89.0402C210.763 89.153 209.927 88.778 209.072 88.7439C208.56 88.7486 208.051 88.8156 207.556 88.9432L205.983 89.2841C206.066 88.0647 205.395 86.8427 205.02 85.6809C204.312 83.4939 204.181 81.1547 204.349 78.8628C204.517 76.5708 204.983 74.3103 205.445 72.0603C205.768 70.4869 205.736 68.8427 206.232 67.3138C206.696 65.8427 207.359 64.4292 207.603 62.8977C208.002 60.4196 206.344 58.3191 206.906 55.875Z" fill="#3F3D56"/>
<path d="M218.835 60.7237C218.979 60.9901 219.081 61.2778 219.136 61.5759C219.258 62.0379 219.485 62.4653 219.8 62.8242C220.064 63.0569 220.298 63.3211 220.497 63.6109C220.739 64.0672 220.647 64.6231 220.76 65.1214C220.891 65.6642 221.271 66.1363 221.326 66.6948C221.328 66.8549 221.343 67.0145 221.371 67.1721C221.541 67.8067 222.475 67.9588 222.682 68.5934C222.821 69.0051 222.582 69.4536 222.627 69.8863C222.659 70.0201 222.667 70.1587 222.65 70.2953C222.591 70.4499 222.487 70.5832 222.351 70.6782C221.483 71.5073 220.883 72.5765 220.626 73.749C220.373 74.9151 220.241 76.104 220.23 77.2971L219.205 75.9413C219.096 75.7768 218.957 75.6345 218.795 75.5217C218.664 75.4431 218.512 75.4037 218.378 75.3251C217.99 75.1048 217.838 74.638 217.689 74.2184C217.274 73.057 216.652 71.9802 215.853 71.0401C215.436 70.5497 214.951 70.0567 214.859 69.4195C214.832 69.1268 214.848 68.8316 214.906 68.5436C215.169 66.8259 215.449 65.0663 216.286 63.5427C216.677 62.8294 217.183 62.1843 217.558 61.4606C217.809 60.9807 218.163 59.7324 218.835 60.7237Z" fill="#3F3D56"/>
<path d="M192.965 62.3731C192.97 62.5939 192.914 62.8117 192.802 63.0025C192.702 63.1187 192.572 63.2047 192.425 63.251C192.279 63.2973 192.123 63.302 191.974 63.2647C191.675 63.1898 191.394 63.058 191.145 62.8766C190.414 62.4151 189.684 61.9527 188.953 61.4894C188.545 61.2435 188.152 60.9738 187.775 60.6817C187.2 60.1961 186.679 59.6502 186.22 59.0532C184.946 57.4798 183.818 55.7726 182.399 54.3329C182.014 53.9396 181.613 53.5619 181.24 53.1502C180.731 52.5551 180.263 51.926 179.84 51.2674C179.431 50.6616 179.006 49.9903 179.077 49.2665C179.119 48.8574 179.315 48.4798 179.373 48.0733C179.431 47.6668 179.276 47.1712 178.883 47.0611C178.836 47.0494 178.789 47.0415 178.741 47.0375C178.664 47.0292 178.587 47.0125 178.513 46.9876C178.149 46.8355 178.204 46.2717 178.466 45.9754C178.728 45.6791 179.116 45.5139 179.355 45.1887C179.466 44.9957 179.59 44.8108 179.727 44.6354C179.903 44.4848 180.113 44.3795 180.338 44.3285C181.851 43.8828 183.451 43.8224 184.993 44.1528C185.255 44.2105 185.554 44.3154 185.633 44.5698C185.664 44.6937 185.664 44.8235 185.633 44.9474C185.517 45.4645 185.45 45.9913 185.434 46.5208C185.433 46.6313 185.439 46.7416 185.452 46.8513C185.575 47.9632 186.296 48.9046 186.999 49.7726C187.833 50.8058 188.68 51.8312 189.53 52.8539C189.989 53.4465 190.503 53.9952 191.064 54.4929C191.588 54.9282 192.267 55.2796 192.677 55.8382C193.01 56.2892 192.902 56.9055 192.939 57.4483C193.061 59.0874 193.07 60.7329 192.965 62.3731V62.3731Z" fill="#3F3D56"/>
<path d="M226.269 73.3137C226.528 73.0619 226.762 72.7852 226.967 72.4876C227.187 72.1189 227.363 71.7255 227.491 71.3154L229.012 67.0016C229.254 66.3198 229.495 65.6354 229.799 64.9719C230.114 64.256 230.486 63.5663 230.83 62.874C231.713 61.0521 232.396 59.1397 232.867 57.1703C232.95 56.8998 232.978 56.6153 232.948 56.3338C232.875 55.8801 232.531 55.5261 232.204 55.2036C231.874 54.8475 231.498 54.5371 231.087 54.2805C230.88 54.1519 230.649 54.0657 230.409 54.027C230.169 53.9883 229.923 53.9978 229.686 54.055C229.015 54.2516 228.593 54.9387 228.438 55.6284C228.283 56.3181 228.341 57.0235 228.275 57.7263C228.181 58.7333 227.835 59.7062 227.751 60.7158C227.706 61.3006 227.751 61.8906 227.68 62.4728C227.551 63.2373 227.285 63.9721 226.893 64.6415C226.041 66.2362 224.89 67.6518 223.503 68.8111C223.123 69.0917 222.781 69.4205 222.485 69.7892C222.239 70.158 222.072 70.5742 221.995 71.0112C221.821 71.6767 221.896 72.3829 222.207 72.9964C222.635 73.7254 223.455 74.0453 224.24 74.2079C225.299 74.4282 225.543 74.0663 226.269 73.3137Z" fill="#BE6F72"/>
<path d="M205.935 40.188C206.161 39.7637 206.507 39.4154 206.929 39.1864C207.352 38.9574 207.832 38.8579 208.311 38.9004C208.793 38.9858 209.242 39.2045 209.606 39.5317C209.971 39.8589 210.236 40.2815 210.372 40.7518C210.496 41.1425 210.545 41.5752 210.76 41.9109C211.086 42.417 211.689 42.5638 212.14 42.931C212.409 43.1812 212.626 43.4826 212.777 43.8176C212.928 44.1527 213.011 44.5145 213.021 44.882C213.046 45.6327 212.928 46.3812 212.672 47.0874C212.564 47.3888 212.476 47.6972 212.41 48.0105C212.357 48.3147 212.352 48.6242 212.305 48.9284C212.247 49.3228 212.11 49.7016 211.904 50.0425C211.697 50.3835 211.424 50.6796 211.101 50.9135C211.009 50.9885 210.895 51.0301 210.776 51.0315C210.572 51.0079 210.446 50.7693 210.37 50.5542C209.953 49.3506 210.052 47.8794 209.284 46.9196C208.935 46.5324 208.512 46.2179 208.041 45.9939C207.849 45.87 207.633 45.7886 207.406 45.7553C207.074 45.7732 206.754 45.8901 206.489 46.0909C205.935 46.4622 205.321 46.7338 204.674 46.8934C204.351 46.9699 204.015 46.9733 203.691 46.9035C203.366 46.8336 203.062 46.6922 202.799 46.4895C202.437 46.1906 202.172 45.7422 201.771 45.5088C201.37 45.2754 200.95 45.2885 200.554 45.1285C200.302 45.0212 200.077 44.8577 199.898 44.6504C199.718 44.4432 199.588 44.1977 199.518 43.9326C199.448 43.6675 199.439 43.3899 199.492 43.1209C199.545 42.8519 199.659 42.5986 199.825 42.3803C200.087 42.0656 200.476 41.8873 200.709 41.5385C201.01 41.0874 200.984 40.4686 201.128 39.9284C201.214 39.5866 201.379 39.2701 201.612 39.0051C201.844 38.7401 202.136 38.5343 202.463 38.4048C202.781 38.2969 203.122 38.2762 203.45 38.3449C203.779 38.4137 204.083 38.5693 204.33 38.7955C204.593 39.0315 204.802 39.3357 205.059 39.5822C205.313 39.8251 205.624 40.0004 205.963 40.092C206.302 40.1836 206.658 40.1887 207 40.1067" fill="#3F3D56"/>
<path opacity="0.1" d="M210.246 78.7866C210.094 78.9225 209.986 79.1013 209.936 79.2997C209.886 79.498 209.898 79.7067 209.968 79.8985C210.026 80.0217 212.732 79.4999 213.018 79.4605C213.732 79.3583 214.982 79.4081 215.462 78.7551C216.317 77.5987 213.669 77.8556 213.184 77.8976C212.26 77.9763 210.949 78.1021 210.246 78.7866Z" fill="black"/>
<path d="M185.628 44.9579C185.512 45.475 185.445 46.0018 185.428 46.5313C184.642 46.6913 183.823 46.4291 183.068 46.1668L180.899 45.4273C180.768 45.343 180.608 45.3121 180.455 45.3408C180.301 45.3696 180.163 45.4558 180.071 45.582C179.722 45.9439 179.242 46.631 178.76 47.0375C178.682 47.0292 178.605 47.0125 178.531 46.9876C178.167 46.8355 178.222 46.2717 178.484 45.9754C178.747 45.6791 179.135 45.5139 179.373 45.1887C179.484 44.9957 179.609 44.8108 179.746 44.6354C179.921 44.4848 180.131 44.3795 180.357 44.3285C181.869 43.8828 183.469 43.8224 185.011 44.1528C185.274 44.2105 185.573 44.3154 185.651 44.5698C185.677 44.6991 185.669 44.8327 185.628 44.9579Z" fill="#3F3D56"/>
<path opacity="0.1" d="M185.628 44.9579C185.512 45.475 185.445 46.0018 185.428 46.5313C184.642 46.6913 183.823 46.4291 183.068 46.1668L180.899 45.4273C180.768 45.343 180.608 45.3121 180.455 45.3408C180.301 45.3696 180.163 45.4558 180.071 45.582C179.722 45.9439 179.242 46.631 178.76 47.0375C178.682 47.0292 178.605 47.0125 178.531 46.9876C178.167 46.8355 178.222 46.2717 178.484 45.9754C178.747 45.6791 179.135 45.5139 179.373 45.1887C179.484 44.9957 179.609 44.8108 179.746 44.6354C179.921 44.4848 180.131 44.3795 180.357 44.3285C181.869 43.8828 183.469 43.8224 185.011 44.1528C185.274 44.2105 185.573 44.3154 185.651 44.5698C185.677 44.6991 185.669 44.8327 185.628 44.9579Z" fill="black"/>
<path opacity="0.1" d="M205.466 94.7438C205.844 94.8697 206.253 95.0533 206.381 95.4309L203.344 94.6599L201.771 94.2587C201.493 94.1879 200.496 94.1066 200.313 93.8889C200.051 93.569 200.982 93.7893 201.149 93.8129C201.658 93.8889 202.167 93.9676 202.673 94.0594C203.628 94.2298 204.545 94.5104 205.466 94.7438Z" fill="black"/>
<path opacity="0.1" d="M206.643 97.4319C206.381 97.2562 205.629 97.2772 205.306 97.2011C204.834 97.0884 204.37 96.9389 203.906 96.7947C202.964 96.4878 202.031 96.1391 201.063 95.9135C200.885 95.8742 200.276 95.8637 200.305 95.6382C200.334 95.4126 200.913 95.334 201.058 95.3235C201.915 95.2606 202.985 95.6618 203.782 95.9476C204.798 96.3116 205.761 96.8108 206.643 97.4319V97.4319Z" fill="black"/>
<path opacity="0.1" d="M204.719 92.347C203.756 92.0847 202.883 91.4868 201.892 91.3714C201.633 91.3813 201.379 91.3037 201.17 91.1512C201.054 91.0367 200.973 90.891 200.937 90.7316C201.601 90.6975 202.372 90.9781 202.975 91.2429C203.307 91.3853 203.626 91.5555 203.929 91.7517C204.15 91.8854 204.48 92.2709 204.719 92.347Z" fill="black"/>
<path d="M223.065 68.8662C222.902 69.9565 223.137 71.0689 223.728 71.9997C224.318 72.9306 225.224 73.6177 226.28 73.9353C226.151 74.5568 225.509 74.9003 225.055 75.3435C224.415 75.965 224.085 76.8959 223.33 77.368C222.488 77.8924 221.405 77.6879 220.445 77.4676C220.358 77.4578 220.277 77.4157 220.219 77.3496C220.2 77.3182 220.185 77.2836 220.177 77.2473C219.86 76.0856 219.653 74.8452 219.978 73.6809C220.24 72.6896 220.87 71.8452 221.373 70.9694C221.877 70.0935 221.924 69.1547 223.065 68.8662Z" fill="#3F3D56"/>
<path d="M199.618 53.8294C198.603 53.9033 197.617 54.2035 196.733 54.7079C196.146 55.0436 195.543 55.4946 194.872 55.4133C194.476 55.3687 194.085 55.1511 193.699 55.256C193.482 55.3436 193.28 55.4639 193.099 55.6126C193.007 55.6857 192.898 55.7337 192.782 55.7521C192.666 55.7705 192.548 55.7586 192.438 55.7175L192.176 59.3469C192.076 60.7263 191.979 62.1345 192.309 63.4798C192.48 64.1668 192.855 64.7909 192.897 65.4885C192.939 66.186 192.876 66.902 192.926 67.6074C192.973 68.2603 193.117 68.9028 193.154 69.5558C193.227 70.7883 192.923 72.0103 192.629 73.2088C192.186 74.9762 191.919 76.7831 191.056 78.3827C190.815 78.8259 190.531 79.2769 190.531 79.7804C190.531 79.8434 190.531 79.9037 190.547 79.964C190.285 80.1082 190.041 80.2446 189.818 80.3862C189.32 80.7088 188.788 81.068 188.583 81.6266C188.418 82.0803 188.494 82.5995 188.295 83.0374C188.095 83.4754 187.639 83.7874 187.539 84.2595C187.469 84.603 187.605 84.9649 187.539 85.3084C187.48 85.4862 187.432 85.6675 187.395 85.8512C187.369 86.2446 187.702 86.5619 188.032 86.7769C188.514 87.0945 189.046 87.3286 189.606 87.4692L191.171 81.2542C192.599 78.6151 193.786 75.8531 194.719 73.0016C194.986 72.0695 195.329 71.1609 195.745 70.2848C196.042 69.7892 196.304 69.2741 196.531 68.7429C196.77 68.082 196.794 67.3661 196.909 66.6686C197.046 65.8544 197.252 65.0534 197.525 64.2743C197.809 63.4326 198.136 62.5934 198.194 61.7097C198.281 60.4457 197.822 59.1109 198.309 57.9413C198.516 57.5035 198.786 57.0981 199.109 56.7376C199.786 55.909 200.402 55.0409 201.079 54.2123C200.727 53.8373 200.143 53.7979 199.618 53.8294Z" fill="#3F3D56"/>
<g opacity="0.1">
<path opacity="0.1" d="M207.008 39.3252L206.68 39.3488L206.643 39.375C206.766 39.37 206.888 39.3533 207.008 39.3252V39.3252Z" fill="black"/>
<path opacity="0.1" d="M213.008 44.7692C212.953 45.2905 212.841 45.8042 212.672 46.3007C212.564 46.602 212.476 46.9104 212.41 47.2237C212.358 47.5279 212.352 47.8374 212.305 48.1416C212.247 48.536 212.111 48.9148 211.904 49.2557C211.697 49.5967 211.424 49.8928 211.101 50.1267C211.01 50.2017 210.895 50.2433 210.776 50.2447C210.572 50.2211 210.446 49.9825 210.37 49.7674C209.953 48.5638 210.052 47.0926 209.284 46.1328C208.935 45.7456 208.512 45.4311 208.041 45.2071C207.849 45.0832 207.633 45.0018 207.406 44.9685C207.074 44.9864 206.754 45.1033 206.489 45.3041C205.935 45.6754 205.321 45.947 204.674 46.1066C204.351 46.1831 204.015 46.1865 203.691 46.1167C203.366 46.0468 203.062 45.9054 202.799 45.7028C202.437 45.4038 202.172 44.9554 201.771 44.722C201.37 44.4886 200.95 44.5017 200.554 44.3417C200.307 44.2361 200.087 44.0761 199.909 43.8736C199.732 43.6711 199.603 43.4314 199.532 43.1722C199.522 43.1395 199.515 43.1062 199.511 43.0725C199.445 43.3652 199.452 43.6696 199.532 43.9589C199.603 44.2181 199.732 44.4579 199.909 44.6603C200.087 44.8628 200.307 45.0228 200.554 45.1285C200.95 45.2884 201.396 45.291 201.771 45.5087C202.146 45.7264 202.437 46.1905 202.799 46.4895C203.062 46.6921 203.366 46.8335 203.691 46.9034C204.015 46.9732 204.351 46.9698 204.674 46.8933C205.321 46.7337 205.935 46.4621 206.489 46.0909C206.754 45.89 207.074 45.7731 207.406 45.7552C207.633 45.7886 207.849 45.8699 208.041 45.9938C208.506 46.2222 208.922 46.5393 209.266 46.9274C210.034 47.8872 209.934 49.3583 210.351 50.562C210.427 50.7797 210.553 51.0157 210.758 51.0393C210.884 51.0399 211.006 50.9952 211.101 50.9134C211.426 50.6789 211.699 50.3816 211.907 50.0392C212.114 49.6969 212.25 49.3164 212.308 48.9204C212.355 48.6162 212.36 48.3068 212.413 48.0026C212.479 47.6893 212.566 47.3808 212.675 47.0795C212.93 46.3732 213.049 45.6247 213.024 44.8741C213.018 44.8426 213.013 44.8059 213.008 44.7692Z" fill="black"/>
</g>
<path d="M196.416 65.8113L196.238 68.2055C196.212 68.5307 195.59 76.2719 191.006 85.3191C187.073 93.0788 179.418 103.185 164.966 108.865C163.838 109.311 162.668 109.727 161.455 110.114L160.101 105.865C163.499 104.796 166.771 103.365 169.862 101.596C177.228 97.3427 182.955 91.2719 186.949 83.4599C189.068 79.3006 190.578 74.8583 191.434 70.2693H174.991V65.8113H196.416Z" fill="#00BAFC"/>
<path opacity="0.1" d="M163.196 108.868C177.645 103.188 185.302 93.0839 189.233 85.3243C193.817 76.2771 194.441 68.5411 194.465 68.2106L194.643 65.8164H196.479L196.301 68.2106C196.277 68.5358 195.653 76.2771 191.069 85.3243C187.136 93.0839 179.481 103.188 165.031 108.868C163.904 109.314 162.733 109.731 161.517 110.119L161.339 109.56C161.972 109.335 162.591 109.104 163.196 108.868Z" fill="white"/>
<path d="M134.266 105.865L132.913 110.114C131.698 109.726 130.526 109.309 129.399 108.863C114.949 103.183 107.292 93.0788 103.361 85.3191C98.7771 76.2719 98.153 68.5359 98.1294 68.2055L97.951 65.8113H119.365V70.2693H102.92C103.78 74.8589 105.295 79.3011 107.418 83.4599C111.412 91.2719 117.136 97.3427 124.503 101.594C127.594 103.364 130.867 104.797 134.266 105.865V105.865Z" fill="#00BAFC"/>
<path opacity="0.1" d="M131.166 108.868C116.717 103.188 109.059 93.0839 105.129 85.3243C100.545 76.2771 99.9205 68.5411 99.8969 68.2106L99.7185 65.8164H97.8829L98.0612 68.2106C98.0848 68.5358 98.7089 76.2771 103.293 85.3243C107.226 93.0839 114.881 103.188 129.33 108.868C130.458 109.314 131.629 109.731 132.844 110.119L133.023 109.56C132.392 109.335 131.773 109.104 131.166 108.868Z" fill="white"/>
<path d="M171.92 146.932V170.971H122.444V146.932L124.017 144.834C140.051 139.143 143.3 124.303 143.948 118.432C144.044 117.62 144.099 116.805 144.113 115.988H150.231C150.244 116.805 150.3 117.62 150.396 118.432C151.054 124.303 154.303 139.148 170.326 144.834L171.92 146.932Z" fill="#00BAFC"/>
<path opacity="0.1" d="M171.92 146.932H122.444V149.948H171.92V146.932Z" fill="black"/>
<path opacity="0.1" d="M126.64 144.834C142.673 139.143 145.922 124.303 146.57 118.432C146.666 117.62 146.721 116.805 146.735 115.988H144.113C144.099 116.805 144.044 117.62 143.948 118.432C143.289 124.303 140.04 139.148 124.017 144.834L122.444 146.932V170.971H125.066V146.932L126.64 144.834Z" fill="white"/>
<path opacity="0.1" d="M114.928 65.8113H119.365V70.2693H115.322C115.163 68.8008 115.031 67.3148 114.928 65.8113Z" fill="black"/>
<path opacity="0.1" d="M134.266 105.865L132.913 110.114C131.698 109.725 130.526 109.309 129.399 108.863C127.544 106.598 125.905 104.164 124.503 101.594C127.594 103.364 130.867 104.796 134.266 105.865Z" fill="black"/>
<path opacity="0.1" d="M160.099 105.865C163.496 104.796 166.768 103.365 169.859 101.596C168.457 104.167 166.818 106.601 164.963 108.868C163.836 109.314 162.665 109.73 161.452 110.116L160.099 105.865Z" fill="black"/>
<path opacity="0.1" d="M179.434 65.8113C179.33 67.3148 179.199 68.8008 179.04 70.2693H174.999V65.8113H179.434Z" fill="black"/>
<path opacity="0.1" d="M150.406 118.432C148.277 118.844 146.088 118.844 143.958 118.432C144.054 117.62 144.11 116.805 144.123 115.988H150.241C150.255 116.805 150.31 117.62 150.406 118.432V118.432Z" fill="black"/>
<path d="M115.453 58.4265C115.566 91.4842 129.726 118.217 147.184 118.217C164.641 118.217 178.799 91.4842 178.914 58.4265H115.453Z" fill="#00BAFC"/>
<path opacity="0.1" d="M121.091 58.4265H115.453C115.566 91.4842 129.726 118.217 147.184 118.217C148.128 118.215 149.071 118.135 150.003 117.978C133.865 115.282 121.198 89.6853 121.091 58.4265Z" fill="white"/>
<path d="M164.009 156.134H130.356V164.788H164.009V156.134Z" fill="#3F3D56"/>
<path opacity="0.1" d="M131.929 157.314H164.009V156.134H130.356V164.788H131.929V157.314Z" fill="white"/>
<path d="M97.5053 90.3434C96.8995 90.1414 93.3331 87.3198 93.063 86.0427C92.7929 84.7656 94.9485 72.8678 94.9485 72.8678C94.9485 72.8678 94.7492 72.8678 94.424 72.8285V72.6371L94.8672 57.0077C94.8672 57.0077 96.6845 46.5182 93.2518 47.1292C89.8191 47.7402 91.9721 57.0077 91.9721 57.0077C91.9721 57.0077 91.5813 61.7122 91.306 63.1231C91.0438 64.4841 89.8427 70.0278 90.6609 71.7507C90.6908 71.8119 90.7241 71.8714 90.7605 71.929V71.929C90.7605 71.929 90.8969 77.8425 89.4153 78.6502C88.0018 79.4185 87.4144 83.2865 87.3646 83.6327L87.2885 83.6012C86.8665 83.3372 86.496 82.9986 86.195 82.6021C86.1635 82.5628 86.1399 82.5208 86.1111 82.4789C87.0759 81.3934 87.5959 79.984 87.5672 78.532C87.5385 77.0801 86.9633 75.6923 85.9563 74.6458C85.4881 74.1595 84.9389 73.7584 84.3331 73.4605C84.3155 72.9594 84.1968 72.4671 83.9843 72.0129C83.3025 70.5549 79.5263 68.6484 76.8436 68.6039C75.6058 68.5671 74.591 68.9185 74.2212 69.8862C74.0324 70.3766 74.0901 70.9352 74.0114 71.4439C73.8541 72.4928 73.1801 73.3136 72.3147 73.9666C71.9653 73.5765 71.5875 73.2128 71.1845 72.8783C70.3086 72.207 68.5621 69.9937 68.5621 69.9937C68.5621 69.9937 63.1102 64.3477 62.7063 62.8005C62.3025 61.2533 56.8558 51.9623 55.6443 53.5803C54.4327 55.1983 59.8165 62.2498 59.8165 62.2498C59.8165 62.2498 60.8392 64.8119 61.6259 65.6773C62.4126 66.5427 68.4441 75.3014 68.4441 75.3014L68.7326 75.8993C67.4581 76.5706 66.2938 77.4255 65.882 78.7577C65.2789 80.7192 66.5979 82.6913 67.5105 84.5269C69.2885 88.1091 69.5429 92.6773 67.2483 95.95C65.1923 98.8399 61.6259 100.214 58.2876 101.415C59.8998 102.681 61.9027 103.346 63.952 103.295C63.181 105.53 60.4485 106.269 58.1198 106.683C59.3418 107.858 61.0909 108.286 62.7693 108.545C63.5913 108.685 64.4242 108.751 65.2579 108.742H65.4625L65.667 108.726C65.9512 108.707 66.2341 108.671 66.514 108.619C67.7256 108.372 68.903 107.711 69.5219 106.641C70.0464 105.726 70.2299 104.478 71.1819 104.019C71.4297 103.907 71.6968 103.844 71.9686 103.833H71.9397C72.118 103.833 72.3016 103.833 72.4799 103.833L76.4476 103.872C76.6128 103.872 76.7833 103.872 76.9537 103.872C78.0735 103.846 79.2693 103.652 79.8383 102.726C80.0724 102.277 80.1956 101.778 80.1976 101.271C80.2815 100.015 80.1976 98.7219 80.2317 97.4553C80.57 99.7603 80.924 103.353 80.0822 104.68C79.3983 105.685 78.5694 106.584 77.6224 107.347C77.3842 107.547 77.1664 107.77 76.9721 108.013C76.8436 108.105 76.7675 108.155 76.7675 108.155L76.6862 108.398C76.3873 108.852 76.1707 109.354 76.0464 109.883C76.0006 110.018 75.9836 110.162 75.9965 110.305C76.0883 110.491 75.341 111.259 75.5586 111.582C73.6915 113.772 73.3375 117.089 73.3375 117.089L69.9284 122.266C68.1766 126.868 65.5542 127.34 65.5542 127.34C65.5542 127.34 59.3943 123.207 59.2264 123.005C59.0586 122.803 56.7037 121.794 56.7037 121.794C56.4261 121.307 56.0022 120.919 55.4922 120.687C54.6845 120.351 54.6163 119.113 54.6163 119.113C54.5166 116.19 52.799 115.967 52.799 115.967C51.4144 115.849 50.3576 116.095 49.5446 116.546L49.2981 116.565C48.1076 116.662 46.6757 116.769 45.1023 116.874C40.7256 117.162 39.6845 119.997 39.6845 119.997C39.6845 119.997 39.1469 120.603 39.8523 121.259C40.5577 121.914 45.0735 121.259 45.2649 121.243C44.9207 121.28 44.5727 121.256 44.2369 121.172C44.9476 121.146 45.9257 121.12 46.7596 121.12H46.9616C46.9091 121.562 46.8837 122.007 46.8855 122.452C46.8855 123.291 49.2063 123.828 49.2063 123.828L56.2736 130.122C56.2736 130.122 60.7159 132.107 63.5429 134.963C66.3698 137.819 68.8689 135.354 68.8689 135.354C71.8611 134.614 80.4703 124.206 80.4782 124.196C80.4782 124.5 80.6591 134.622 81.0027 136.655C81.0163 136.758 81.0418 136.859 81.0787 136.956C81.4826 137.829 80.9424 140.216 80.709 141.223C80.5601 142.065 80.503 142.922 80.5385 143.777C80.5385 143.777 77.3104 156.102 77.5778 157.185C77.8453 158.268 75.8287 163.301 75.8287 163.301V167.496L76.1801 167.478C76.1344 167.546 76.0924 167.616 76.0542 167.688L76.0306 167.732C76.0306 167.732 78.1836 168.202 79.6312 168.068C81.0787 167.934 83.5647 169.183 83.5647 169.183C83.5647 169.183 84.4065 169.581 86.9974 169.749C89.5883 169.917 89.5883 168.606 89.5883 168.606C89.292 166.82 85.1985 166.222 85.0726 166.203C84.7422 165.996 84.4327 165.771 84.1784 165.577L84.1259 165.535C84.1431 165.495 84.158 165.455 84.1705 165.414C84.6084 163.631 82.1854 162.857 82.1854 162.857V162.422C83.7588 161.614 84.0709 156.071 84.0709 156.071C84.0709 156.071 86.431 149.216 86.7614 148.072C87.0918 146.929 86.7614 145.217 86.7614 145.217L86.9974 143.738C86.9974 143.738 87.5035 142.731 87.5035 142.529C87.5691 142.017 87.766 141.531 88.0752 141.118C88.445 140.68 87.6714 139.639 87.6714 139.639L88.3453 137.892V135.975L89.9188 129.021C89.9188 129.021 91.5682 120.92 90.9966 118.269C90.4249 115.618 91.6705 114.27 91.6705 114.27C91.5582 114.329 91.4427 114.382 91.3244 114.427C91.4818 114.063 91.6176 113.69 91.7308 113.31L95.271 113.748V113.801H96.5481C96.5481 113.801 96.1443 108.818 96.1443 106.809C96.1443 104.801 97.5053 97.5916 97.5053 97.5916C97.5053 97.5916 98.1111 90.5453 97.5053 90.3434ZM81.7894 84.5269C81.7894 84.7236 81.771 84.9282 81.7579 85.1379L81.6871 85.2455L81.556 85.1353L81.396 85.3844L81.3488 85.4081C81.0027 85.2297 80.8243 84.2096 80.5752 84.4299L80.5411 84.4588C80.4861 84.3958 80.431 84.3775 80.3733 84.4299L80.3209 84.4745C80.3209 84.3984 80.3209 84.3198 80.3209 84.2411C80.8006 84.3646 81.294 84.4271 81.7894 84.4273C81.792 84.4614 81.7894 84.4955 81.7894 84.5269ZM93.5639 107.73H93.6399L93.514 108.06C93.5298 107.95 93.5455 107.842 93.5639 107.73V107.73ZM80.6382 167.197L80.1556 167.077L80.4179 167.032L80.6618 167.192L80.6906 167.213L80.6382 167.197ZM85.5682 166.492C85.4083 166.408 85.2457 166.311 85.0883 166.211C85.1408 166.24 85.3479 166.348 85.5682 166.492V166.492Z" fill="url(#paint1_linear_1_782)"/>
<path d="M95.3051 102.776L92.1294 111.052H92.9003L89.9135 113.433L95.3051 114.105V102.776Z" fill="#F86D70"/>
<path opacity="0.1" d="M95.3051 102.776L92.1294 111.052L91.3295 110.837L89.9135 113.433L95.3051 114.105V102.776Z" fill="black"/>
<path d="M90.3252 108.071H95.3051L97.1329 93.0315H90.3252V108.071Z" fill="#F86D70"/>
<path opacity="0.1" d="M90.3252 108.071H95.3051L97.1329 93.0315H90.3252V108.071Z" fill="black"/>
<path d="M80.5987 96.5926L81.6739 96.4116L84.1442 95.992C84.1442 95.992 91.5629 94.319 93.0944 94.1826C94.0221 94.0601 94.9269 93.8021 95.7797 93.4169C96.1809 93.2438 96.4353 93.1127 96.4353 93.1127L93.7631 88.2324L89.6171 85.159C89.6171 85.159 86.9947 84.6004 85.8854 83.0742C85.6379 82.7458 85.4767 82.3605 85.4167 81.9537C85.3567 81.5468 85.3997 81.1314 85.5419 80.7456C86.2185 78.6477 81.5008 82.7517 81.5008 82.7517C81.5008 82.7517 81.5454 83.7351 81.5008 84.9886C81.5008 85.2351 81.4772 85.492 81.4589 85.7543C81.4589 85.9274 81.4353 86.1004 81.4169 86.2788C81.3015 87.5244 81.0655 88.8067 80.5987 89.5725C79.458 91.4448 80.5987 96.5926 80.5987 96.5926Z" fill="#FBBEBE"/>
<path opacity="0.1" d="M81.5009 85.0936H81.6057C81.7946 85.0936 81.9467 84.6924 82.1302 84.674C83.6066 84.5324 84.9545 84.223 85.8907 83.1766C85.6438 82.8484 85.483 82.4636 85.423 82.0573C85.363 81.651 85.4057 81.2361 85.5472 80.8506C86.2238 78.7527 81.5061 82.8541 81.5061 82.8541C81.5061 82.8541 81.5559 83.8401 81.5009 85.0936Z" fill="black"/>
<path d="M75.7579 79.1459C75.7575 79.9009 75.906 80.6485 76.1947 81.3461C76.4835 82.0437 76.9069 82.6775 77.4407 83.2113C77.9746 83.7452 78.6084 84.1686 79.306 84.4573C80.0035 84.7461 80.7512 84.8945 81.5061 84.8942C81.6949 84.8942 81.8811 84.8942 82.0673 84.868C83.1749 84.7593 84.2272 84.3315 85.0963 83.6364C85.9655 82.9413 86.6142 82.0088 86.9636 80.9522C87.3131 79.8956 87.3483 78.7602 87.065 77.684C86.7817 76.6077 86.1921 75.6368 85.3677 74.8892C84.5433 74.1415 83.5196 73.6493 82.4209 73.4722C81.3221 73.2951 80.1956 73.4407 79.1781 73.8915C78.1605 74.3422 77.2957 75.0786 76.6885 76.0114C76.0814 76.9441 75.7581 78.033 75.7579 79.1459Z" fill="#FBBEBE"/>
<path d="M73.993 70.4213C73.8042 70.9091 73.8619 71.4545 73.7859 71.9711C73.5053 73.8357 71.6093 74.9528 69.8943 75.7343C68.1792 76.5157 66.2439 77.4414 65.6984 79.243C65.1005 81.1914 66.4065 83.1451 67.3138 84.9729C69.0813 88.5341 69.3331 93.076 67.0516 96.333C65.0245 99.2176 61.4922 100.587 58.167 101.788C59.7673 103.047 61.7563 103.709 63.792 103.66C63.0289 105.881 60.3147 106.618 58.0018 107.027C59.2159 108.197 60.9546 108.621 62.6198 108.878C63.8339 109.067 65.0796 109.191 66.2911 108.947C67.5026 108.703 68.6512 108.045 69.2754 106.98C69.7998 106.07 69.9782 104.83 70.9248 104.371C71.3522 104.202 71.8125 104.135 72.2701 104.174L76.2037 104.216C77.4283 104.216 78.8785 104.121 79.5105 103.075C79.7436 102.628 79.8659 102.132 79.8672 101.628C80.0376 99.0472 79.542 96.3199 80.604 93.965C80.924 93.2544 78.8706 92.1294 79.0857 91.3767C79.8252 88.7884 80.0114 86.7509 80.0035 84.0577C80.0035 81.9729 81.3593 80.1766 82.479 78.417C83.5988 76.6573 84.535 74.4362 83.6512 72.5481C82.6547 70.4423 75.1705 67.382 73.993 70.4213Z" fill="#3F3D56"/>
<path d="M79.2299 166.442L80.2317 167.106L80.3864 167.208L80.4152 167.226L81.6032 168.013L84.3776 168.48L86.8165 168.312C86.8165 168.312 87.5193 166.844 86.4152 166.878C86.0616 166.859 85.717 166.76 85.4082 166.587L85.2561 166.51C85.0962 166.427 84.9362 166.332 84.7789 166.232C84.4511 166.025 84.1416 165.8 83.8925 165.608C83.5254 165.325 83.2815 165.11 83.2815 165.11L79.2299 166.442Z" fill="#FBBEBE"/>
<path opacity="0.1" d="M80.2448 167.106L80.3995 167.208L80.4283 167.227L81.6163 168.013L84.3907 168.48L86.8295 168.312C86.8295 168.312 87.5323 166.844 86.4283 166.878C86.0747 166.86 85.7301 166.76 85.4213 166.587C85.6154 166.739 85.778 166.904 85.7937 167.043C85.8383 167.418 83.9895 168.092 83.9895 168.092L81.3829 167.402C81.3829 167.402 80.9397 167.276 80.3339 167.119L80.2762 167.103L80.2448 167.106Z" fill="black"/>
<path d="M75.7867 167.746C75.7867 167.746 77.924 168.212 79.361 168.079C80.7981 167.945 83.2736 169.183 83.2736 169.183C83.2736 169.183 84.1102 169.576 86.6827 169.744C89.2553 169.912 89.2553 168.606 89.2553 168.606C88.9616 166.83 84.8969 166.246 84.771 166.219C84.8208 166.246 85.0332 166.353 85.2483 166.497C85.5367 166.686 85.8488 166.933 85.8724 167.132C85.917 167.504 84.0682 168.181 84.0682 168.181L81.4616 167.494C81.4616 167.494 81.0184 167.365 80.4126 167.208H80.3549C79.4567 166.963 78.5441 166.775 77.6224 166.644C76.5 166.524 75.9257 167.478 75.8077 167.693C75.7992 167.71 75.7921 167.728 75.7867 167.746V167.746Z" fill="#3F3D56"/>
<path d="M42.0996 120.587L43.2351 121.458C43.2351 121.458 43.5655 121.442 44.0585 121.427H44.2159C44.9213 121.4 45.8942 121.374 46.7202 121.374C47.2542 121.35 47.7893 121.38 48.3173 121.463C48.8837 121.663 49.8907 118.222 49.8907 118.222L48.7526 117.96L48.375 117.871L48.1127 117.808L47.187 117.59L44.3811 117.91L42.4091 119.179L42.0996 120.587Z" fill="#FBBEBE"/>
<path opacity="0.1" d="M42.0996 120.587L43.2351 121.458C43.2351 121.458 43.5655 121.442 44.0585 121.427C43.8323 121.339 43.6458 121.172 43.534 120.957C42.7998 118.92 46.4423 118.049 46.4423 118.049L48.1389 117.976L48.4694 117.96H48.7316L48.354 117.871L48.0917 117.808L47.166 117.59L44.3601 117.91L42.3881 119.179L42.0996 120.587Z" fill="black"/>
<path d="M39.8601 121.508C40.5472 122.143 45.0472 121.508 45.236 121.492C44.8945 121.531 44.5488 121.507 44.2159 121.421C44.0511 121.392 43.8949 121.326 43.7588 121.228C43.6227 121.131 43.5101 121.004 43.4292 120.858C42.6949 118.817 46.3374 117.949 46.3374 117.949L48.0341 117.876L48.3619 117.86L52.4869 117.682L52.6862 116.546C52.6862 116.546 51.3461 116.672 49.243 116.84C48.0603 116.937 46.6206 117.045 45.0655 117.147C40.7202 117.435 39.687 120.254 39.687 120.254C39.687 120.254 39.1599 120.858 39.8601 121.508Z" fill="#3F3D56"/>
<path d="M90.3278 72.2857C90.3558 72.348 90.3891 72.4077 90.4275 72.4641L91.4292 73.9326L94.0359 74.1948L94.0647 73.1616L94.5027 57.6162C94.5027 57.6162 96.3069 47.1896 92.8978 47.7901C89.4887 48.3906 91.6285 57.6162 91.6285 57.6162C91.6285 57.6162 91.2404 62.2945 90.9677 63.7001C90.7028 65.0585 89.5149 70.5812 90.3278 72.2857Z" fill="#FBBEBE"/>
<path d="M84.4773 110.898L85.2194 112.167L86.8794 115.007C86.8794 115.007 89.8899 116.111 90.6609 115.269C91.0831 114.81 91.5394 113.208 91.8593 111.86C92.1215 110.769 92.2972 109.849 92.2972 109.849L84.4773 110.898Z" fill="#FBBEBE"/>
<path opacity="0.1" d="M84.4773 110.898L85.2194 112.167C85.266 112.127 85.3082 112.082 85.3453 112.033C86.1845 110.963 89.8794 111.805 91.8593 111.873C92.1215 110.782 92.2972 109.862 92.2972 109.862L84.4773 110.898Z" fill="black"/>
<path opacity="0.1" d="M46.7203 121.369C47.2543 121.345 47.7893 121.375 48.3173 121.458C48.8837 121.657 49.8907 118.217 49.8907 118.217L48.375 117.86L52.5 117.682L52.6993 116.546C52.6993 116.546 51.3593 116.672 49.2561 116.84C48.8215 117.09 48.4338 117.414 48.1101 117.797L48.0472 117.876C47.1687 118.954 46.8435 120.344 46.7203 121.369Z" fill="black"/>
<path opacity="0.1" d="M79.2299 166.442L80.3864 167.208C82.1119 166.896 83.688 166.406 83.8742 165.635C83.875 165.622 83.875 165.61 83.8742 165.598C83.507 165.315 83.2632 165.1 83.2632 165.1L79.2299 166.442Z" fill="black"/>
<path opacity="0.1" d="M75.8103 167.701C77.3341 167.625 78.8523 167.462 80.3575 167.213C79.4585 166.967 78.545 166.777 77.6224 166.644C76.5026 166.524 75.9283 167.478 75.8103 167.701Z" fill="black"/>
<path d="M46.8461 122.693C46.8461 123.53 49.1512 124.065 49.1512 124.065L56.1713 130.314C56.1713 130.314 60.5821 132.286 63.3881 135.126C66.194 137.966 68.6696 135.527 68.6696 135.527C71.6433 134.793 80.208 124.432 80.208 124.432C80.208 124.432 80.4073 136.264 80.8085 137.132C81.2098 138 80.6748 140.373 80.4414 141.378C80.2942 142.215 80.2379 143.066 80.2736 143.916C80.2736 143.916 77.0664 156.181 77.3339 157.251C77.6014 158.321 75.5953 163.335 75.5953 163.335V167.512C75.5953 167.512 83.4493 167.211 83.882 165.441C84.3147 163.67 81.9126 162.899 81.9126 162.899V162.464C83.486 161.662 83.7823 156.149 83.7823 156.149C83.7823 156.149 86.1241 149.331 86.4571 148.196C86.7902 147.06 86.4571 145.353 86.4571 145.353L86.6905 143.885C86.6905 143.885 87.1914 142.88 87.1914 142.681C87.2569 142.172 87.4529 141.689 87.7605 141.278C88.1276 140.843 87.3592 139.807 87.3592 139.807L88.0279 138.068V136.164L89.6014 129.247C89.6014 129.247 91.2404 121.191 90.6713 118.55C90.1023 115.909 91.34 114.574 91.34 114.574C88.6573 115.98 87.3042 112.851 86.861 111.506C86.7482 111.16 86.6932 110.929 86.6932 110.929C86.6932 110.929 83.0087 109.571 79.5786 109.896C78.882 109.952 78.1955 110.098 77.5358 110.329C73.7255 111.7 73.125 117.38 73.125 117.38L69.75 122.528C68.0113 127.107 65.4047 127.573 65.4047 127.573C65.4047 127.573 59.2893 123.464 59.111 123.262C58.9327 123.06 56.604 122.059 56.604 122.059C56.3287 121.574 55.9074 121.189 55.4003 120.957C54.5979 120.622 54.5323 119.384 54.5323 119.384C54.4327 116.476 52.7281 116.237 52.7281 116.237C46.812 115.744 46.8461 121.859 46.8461 122.693Z" fill="#3F3D56"/>
<path d="M80.8688 106.353H84.4772V95.1583H80.8688V106.353Z" fill="#F86D70"/>
<path opacity="0.1" d="M80.8688 106.353H84.4772V95.1583H80.8688V106.353Z" fill="black"/>
<path opacity="0.1" d="M90.3251 72.2622C90.3246 72.2701 90.3246 72.278 90.3251 72.2858C90.3531 72.3481 90.3864 72.4077 90.4248 72.4641L91.4265 73.9327L94.0332 74.1949L94.0621 73.1617C93.2491 73.0987 91.3977 72.8758 90.3251 72.2622Z" fill="black"/>
<path d="M90.4275 72.4641C90.4275 72.4641 90.5612 78.3435 89.0901 79.1459C87.6189 79.9484 87.0472 84.1285 87.0472 84.1285C87.0472 84.1285 91.5053 87.0603 92.4992 88.3505C93.4931 89.6407 95.7745 92.7141 95.3051 93.4484C94.8357 94.1827 96.4432 97.5262 96.4432 97.5262C96.4432 97.5262 93.5009 103.542 94.1696 105.816C94.8383 108.089 94.9039 114.102 94.9039 114.102H96.1757C96.1757 114.102 95.7745 109.156 95.7745 107.15C95.7745 105.144 97.1093 97.993 97.1093 97.993C97.1093 97.993 97.7125 90.9755 97.1093 90.7762C96.5062 90.5769 92.9659 87.7683 92.6985 86.4965C92.431 85.2246 94.5708 73.3846 94.5708 73.3846C94.5708 73.3846 91.8305 73.2666 90.4275 72.4641Z" fill="#F86D70"/>
<path opacity="0.1" d="M80.8007 94.1197C80.9227 94.9378 81.2207 95.7197 81.674 96.4116L84.1443 95.992C84.1443 95.992 91.563 94.319 93.0944 94.1826C94.0222 94.0601 94.9269 93.8021 95.7797 93.4169C95.1919 91.334 94.0446 89.4521 92.4624 87.9754L91.521 87.1022C90.1337 85.8142 88.5259 84.7865 86.7745 84.0681C86.8846 84.1599 94.6679 90.805 92.9633 92.1083C91.2588 93.4116 86.6696 90.2386 86.6696 90.2386L81.4511 85.7543L81.2623 85.5917L80.9607 86.0611C81.1141 86.1242 81.2638 86.196 81.4091 86.2762C83.1877 87.2524 84.5076 88.8928 85.0804 90.8391C86.153 94.4448 80.8007 94.1197 80.8007 94.1197Z" fill="black"/>
<path d="M79.1958 110.829C79.1958 110.829 84.1416 113.57 85.3427 112.033C85.6049 111.695 86.1582 111.548 86.8479 111.509C86.7351 111.162 86.6801 110.932 86.6801 110.932C86.6801 110.932 82.9956 109.573 79.5656 109.898C79.34 110.465 79.1958 110.829 79.1958 110.829Z" fill="#444053"/>
<path d="M81.472 85.5969L86.8794 90.249C86.8794 90.249 91.4502 93.4326 93.1731 92.1188C94.896 90.805 86.9816 84.0759 86.9816 84.0759C88.7293 84.7964 90.3355 85.821 91.7255 87.1022L92.667 87.9754C95.1425 90.27 95.7011 90.27 95.785 93.6424C95.806 94.4737 95.5227 95.6668 95.3051 95.8819C94.5026 96.6686 93.9414 102.383 94.0647 103.051C94.1879 103.72 92.5699 109.492 93.0944 111.097C93.6189 112.702 86.5385 110.294 85.34 111.834C84.1416 113.373 79.1958 110.63 79.1958 110.63C79.1958 110.63 81.9362 103.61 82.6049 103.143C83.2736 102.676 84.076 99.0654 82.6049 97.395C81.1337 95.7245 81.0026 94.1196 81.0026 94.1196C81.0026 94.1196 86.3523 94.4501 85.2797 90.8443C84.978 89.7991 84.4545 88.8313 83.7449 88.0068C83.0353 87.1823 82.1563 86.5204 81.1678 86.0663L81.472 85.5969Z" fill="#E8E8F0"/>
<path opacity="0.1" d="M88.6888 97.4292C88.6888 97.4292 86.6145 101.339 83.9318 102.354C83.8453 102.386 83.7614 102.414 83.6696 102.441C80.8689 103.293 88.8986 98.6407 88.6888 97.4292Z" fill="black"/>
<path d="M59.6801 62.8374C59.6801 62.8374 60.6818 65.3785 61.4843 66.2465C62.2867 67.1145 68.2343 75.805 68.2343 75.805L68.7378 76.854L69.1705 77.7482L72.9808 77.347L73.243 75.8103L73.0962 75.632C72.7133 75.1731 71.6696 73.9405 70.9694 73.4029C70.1014 72.7369 68.3628 70.5314 68.3628 70.5314C68.3628 70.5314 62.9502 64.9143 62.549 63.3776C62.1477 61.8409 56.7325 52.6258 55.5315 54.2202C54.3304 55.8147 59.6801 62.8374 59.6801 62.8374Z" fill="#FBBEBE"/>
<g opacity="0.1">
<path opacity="0.1" d="M70.7361 104.174C70.2787 104.134 69.8183 104.201 69.3908 104.368C68.4467 104.827 68.2684 106.067 67.7439 106.977C67.1303 108.042 65.9607 108.7 64.757 108.944C64.5178 108.99 64.2762 109.024 64.0333 109.044C64.7999 109.118 65.5732 109.085 66.3305 108.944C67.5341 108.7 68.7037 108.042 69.3174 106.977C69.8418 106.067 70.0202 104.827 70.9642 104.368C71.2121 104.256 71.4793 104.194 71.7509 104.184L70.7361 104.174Z" fill="black"/>
<path opacity="0.1" d="M80.0508 84.0577C80.0508 81.9729 81.4066 80.1766 82.5237 78.417C83.6408 76.6574 84.5797 74.4362 83.6959 72.5481C82.9407 70.9353 78.3882 68.7719 75.7606 69.1993C78.3331 69.5324 81.5036 71.2264 82.1225 72.5481C83.0062 74.4362 82.0674 76.6574 80.9503 78.417C79.8331 80.1766 78.4721 81.9729 78.4774 84.0577C78.4774 86.7483 78.2964 88.778 77.5569 91.3768C77.3445 92.1242 79.3926 93.2544 79.0779 93.9624C78.0132 96.3226 78.5115 99.0446 78.341 101.625C78.3375 102.129 78.2143 102.625 77.9817 103.073C77.4573 103.935 76.3821 104.158 75.3358 104.205H76.251C77.473 104.205 78.9232 104.111 79.5552 103.065C79.7878 102.617 79.9109 102.121 79.9144 101.617C80.0849 99.0367 79.5866 96.3121 80.6513 93.9546C80.9712 93.2465 78.9179 92.1189 79.1303 91.3689C79.8699 88.7885 80.056 86.7483 80.0508 84.0577Z" fill="black"/>
</g>
<path opacity="0.1" d="M68.7378 76.8487L69.1705 77.743L72.9808 77.3417L73.243 75.805L73.0962 75.6267C72.6897 75.826 69.6451 77.2919 68.7378 76.8487Z" fill="black"/>
<path opacity="0.1" d="M82.8068 86.9002C82.8068 86.9002 81.8707 85.4317 81.3357 85.8303C80.8007 86.2289 80.5936 84.6266 80.2867 84.8941C79.9799 85.1616 79.0857 85.9063 78.7133 84.8652C78.4222 84.0366 75.2544 78.7944 73.9694 76.686C73.639 76.1406 73.4318 75.8049 73.4318 75.8049C73.4318 75.8049 69.8235 77.6091 68.9554 77.0086V78.2778L69.6897 78.346L73.6233 85.6887C73.6233 85.6887 74.861 87.6581 74.7771 88.3451C74.6932 89.0322 76.3637 92.0401 76.6311 92.2394C76.8986 92.4387 79.778 95.7822 79.778 95.7822C79.778 95.7822 81.2492 103.002 79.9773 105.008C78.7055 107.014 76.5027 108.482 76.5027 108.482C76.5027 108.482 75.8392 110.42 75.9362 110.622C76.0332 110.824 75.1652 111.692 75.5665 111.96C75.9677 112.227 76.5027 114.097 76.5027 114.097C76.5027 114.097 78.375 111.089 79.3873 110.622C80.3995 110.155 81.695 104.003 81.695 104.003C81.695 104.003 82.0647 100.379 82.0936 98.0401C82.1224 95.7009 82.0044 86.9002 82.8068 86.9002Z" fill="black"/>
<path d="M82.6049 86.9002C82.6049 86.9002 81.6714 85.4317 81.1364 85.8303C80.6014 86.2289 80.3917 84.6266 80.0875 84.8941C79.7833 85.1616 78.889 85.9063 78.514 84.8652C78.2203 84.0366 75.0525 78.7944 73.7702 76.686L73.2326 75.8049C73.2326 75.8049 69.6242 77.6091 68.7535 77.0086V78.2778L69.4904 78.346L73.424 85.6887C73.424 85.6887 74.6644 87.6581 74.5778 88.3451C74.4913 89.0322 76.1513 92.0401 76.4319 92.2394C76.7125 92.4387 79.5787 95.7822 79.5787 95.7822C79.5787 95.7822 81.0499 103.002 79.7806 105.008C79.1102 106.015 78.2945 106.918 77.3602 107.688C76.5753 108.335 76.023 109.221 75.7868 110.211C75.7412 110.345 75.7251 110.488 75.7396 110.63C75.8366 110.829 74.9686 111.7 75.3698 111.968C75.771 112.235 76.3112 114.113 76.3112 114.113C76.3112 114.113 78.1836 111.105 79.1959 110.638C80.2081 110.171 81.5062 104.019 81.5062 104.019C81.5062 104.019 81.8733 100.395 81.9048 98.0558C81.9362 95.7166 81.8182 86.9002 82.6049 86.9002Z" fill="#F86D70"/>
<path opacity="0.1" d="M73.4475 117.315C73.4475 117.315 76.2561 117.839 77.3811 118.649C78.5061 119.46 73.104 117.38 73.104 117.38L73.4475 117.315Z" fill="black"/>
<path opacity="0.1" d="M80.2002 124.432C80.2002 124.432 83.1294 126.873 82.6049 129.079C82.0805 131.284 80.7273 136.833 80.7273 136.833L80.2002 124.432Z" fill="black"/>
<path opacity="0.1" d="M54.5822 119.738C54.5822 119.738 50.4546 120.189 50.7221 120.724C50.9895 121.259 54.5822 120.231 54.5822 120.231V119.738Z" fill="black"/>
<path opacity="0.1" d="M86.2762 140.04C86.2762 140.04 86.5384 140.373 85.007 140.04C83.4755 139.707 84.6057 138.679 84.6057 138.679L86.2762 140.04Z" fill="black"/>
<path opacity="0.1" d="M85.7518 144.653C85.7518 144.653 83.6539 144.986 82.5289 144.653C81.4039 144.32 85.7518 144.653 85.7518 144.653Z" fill="black"/>
<path opacity="0.1" d="M81.4353 162.7C81.4353 162.7 81.0682 162.299 79.2299 163.033C77.3916 163.768 76.6574 163.802 76.1224 163.558C75.5875 163.314 81.4353 162.7 81.4353 162.7Z" fill="black"/>
<path opacity="0.1" d="M83.4755 119.169L80.8689 122.795C80.8689 122.795 82.2719 119.62 83.4755 119.169Z" fill="black"/>
<path opacity="0.1" d="M78.4091 85.8303C78.4091 85.8303 78.2963 87.034 76.6154 87.5034C74.9344 87.9728 74.6145 88.3531 74.6145 88.3531" fill="black"/>
<path opacity="0.1" d="M74.0402 77.1057C74.0402 77.1057 71.8217 78.6792 69.5061 78.3461Z" fill="black"/>
<path opacity="0.1" d="M75.729 110.796C75.729 110.796 76.3767 111.202 77.9318 109.424Z" fill="black"/>
<path opacity="0.1" d="M91.8803 91.9433C91.9432 91.6181 91.7177 91.3165 91.5053 91.0621L91.0699 90.5377C90.9849 90.4303 90.8891 90.3319 90.7841 90.244C90.5219 90.042 90.1862 89.9817 89.9135 89.8008" fill="black"/>
<path opacity="0.1" d="M232.681 0.524355C232.681 0.524355 210.603 -0.807811 213.199 14.6642C213.199 14.6642 212.675 17.3994 215.161 18.6397C215.161 18.6397 215.2 17.4938 217.427 17.8845C218.219 18.0159 219.024 18.0546 219.826 17.9999C220.909 17.9251 221.938 17.4998 222.758 16.7883V16.7883C222.758 16.7883 228.965 14.2237 231.378 4.0803C231.378 4.0803 233.164 1.86701 233.093 1.29796L229.366 2.88974C229.366 2.88974 230.641 5.57768 229.629 7.81194C229.629 7.81194 229.508 2.98677 228.792 3.09166C228.648 3.11526 226.857 4.02261 226.857 4.02261C226.857 4.02261 229.046 8.70355 227.394 12.1074C227.394 12.1074 228.021 6.33817 226.172 4.36089L223.55 5.89237C223.55 5.89237 226.109 10.728 224.373 14.6747C224.373 14.6747 224.819 8.62226 222.997 6.26474L220.621 8.11876C220.621 8.11876 223.025 12.8862 221.559 16.159C221.559 16.159 221.368 9.11265 220.107 8.5803C220.107 8.5803 218.027 10.416 217.71 11.166C217.71 11.166 219.357 14.6275 218.334 16.4527C218.334 16.4527 217.707 11.7586 217.193 11.7324C217.193 11.7324 215.122 14.8425 214.906 16.9772C214.906 16.9772 214.996 13.8067 216.692 11.4387C216.692 11.4387 214.689 11.7822 213.519 13.0803C213.519 13.0803 213.842 10.8827 217.204 10.6913C217.204 10.6913 218.916 8.33118 219.372 8.18695C219.372 8.18695 216.031 7.90897 214.004 8.80582C214.004 8.80582 215.788 6.73152 219.986 7.67558L222.333 5.75862C222.333 5.75862 217.933 5.1581 216.066 5.82156C216.066 5.82156 218.213 3.98589 222.965 5.32331L225.519 3.79708C225.519 3.79708 221.767 2.98939 219.532 3.27261C219.532 3.27261 221.893 2.00076 226.269 3.38013L228.105 2.55932C228.105 2.55932 225.357 2.01911 224.552 1.93257C223.747 1.84603 223.705 1.62576 223.705 1.62576C225.446 1.33542 227.233 1.53424 228.868 2.20006C228.868 2.20006 232.749 0.768236 232.681 0.524355Z" fill="#00BAFC"/>
<path opacity="0.1" d="M205.45 4.46057C205.45 4.46057 195.485 3.85742 196.652 10.8487C196.652 10.8487 196.419 12.0864 197.536 12.6476C197.536 12.6476 197.554 12.1232 198.561 12.3041C198.919 12.3643 199.282 12.3819 199.644 12.3565C200.134 12.3233 200.599 12.1308 200.969 11.8085V11.8085C200.969 11.8085 203.774 10.652 204.865 6.06809C204.865 6.06809 205.67 5.06634 205.639 4.80935L203.955 5.52788C203.955 5.52788 204.532 6.74466 204.079 7.75428C204.079 7.75428 204.024 5.57246 203.701 5.62491C203.636 5.62491 202.825 6.04448 202.825 6.04448C202.825 6.04448 203.816 8.16074 203.069 9.70008C203.069 9.70008 203.352 7.09344 202.516 6.19921L201.33 6.89152C201.33 6.89152 202.49 9.07595 201.703 10.8592C201.703 10.8592 201.905 8.12403 201.081 7.05935L200.009 7.90637C200.009 7.90637 201.094 10.062 200.434 11.5384C200.434 11.5384 200.347 8.3548 199.775 8.11617C199.775 8.11617 198.837 8.94483 198.692 9.28574C198.692 9.28574 199.437 10.8592 198.976 11.6721C198.976 11.6721 198.692 9.55061 198.451 9.54274C198.451 9.54274 197.517 10.9483 197.418 11.9029C197.465 11.012 197.743 10.1488 198.226 9.39851C197.685 9.50084 197.187 9.75879 196.791 10.1406C196.791 10.1406 196.938 9.14938 198.456 9.06022C198.456 9.06022 199.243 7.99553 199.437 7.92997C199.437 7.92997 197.927 7.8041 197.011 8.21057C197.011 8.21057 197.816 7.27176 199.715 7.6861L200.764 6.82071C200.764 6.82071 198.776 6.55847 197.932 6.84956C197.932 6.84956 198.902 6.02088 201.05 6.62403L202.204 5.93435C202.204 5.93435 200.51 5.56721 199.497 5.70095C199.497 5.70095 200.565 5.12403 202.542 5.74816L203.368 5.3784C203.368 5.3784 202.125 5.1319 201.761 5.09519C201.396 5.05847 201.378 4.9562 201.378 4.9562C202.165 4.82524 202.973 4.91604 203.712 5.21844C203.712 5.21844 205.482 4.57071 205.45 4.46057Z" fill="#00BAFC"/>
<path d="M240.26 171.149C246.083 171.149 250.804 170.351 250.804 169.366C250.804 168.381 246.083 167.583 240.26 167.583C234.436 167.583 229.715 168.381 229.715 169.366C229.715 170.351 234.436 171.149 240.26 171.149Z" fill="#00BAFC"/>
<path d="M244.621 166.45C245.102 166.058 245.452 165.528 245.625 164.932C245.756 164.331 245.499 163.621 244.922 163.387C244.277 163.141 243.587 163.589 243.066 164.04C242.544 164.491 241.943 165.008 241.261 164.911C241.613 164.592 241.876 164.187 242.024 163.736C242.173 163.285 242.203 162.804 242.111 162.338C242.081 162.145 242 161.964 241.875 161.814C241.516 161.431 240.868 161.593 240.438 161.895C239.074 162.855 238.694 164.709 238.686 166.374C238.55 165.774 238.665 165.147 238.663 164.538C238.66 163.93 238.49 163.227 237.968 162.905C237.646 162.732 237.284 162.646 236.919 162.658C236.308 162.635 235.623 162.697 235.206 163.146C234.682 163.702 234.821 164.635 235.272 165.244C235.723 165.852 236.413 166.243 237.047 166.665C237.555 166.968 237.988 167.381 238.314 167.874C238.353 167.943 238.385 168.016 238.408 168.092H242.253C243.112 167.654 243.909 167.102 244.621 166.45V166.45Z" fill="#00BAFC"/>
</g>
<defs>
<linearGradient id="paint0_linear_1_782" x1="212.022" y1="132.907" x2="212.022" y2="27.409" gradientUnits="userSpaceOnUse">
<stop stop-color="#808080" stop-opacity="0.25"/>
<stop offset="0.54" stop-color="#808080" stop-opacity="0.12"/>
<stop offset="1" stop-color="#808080" stop-opacity="0.1"/>
</linearGradient>
<linearGradient id="paint1_linear_1_782" x1="10450.5" y1="65713.3" x2="23402.9" y2="65713.3" gradientUnits="userSpaceOnUse">
<stop stop-color="#808080" stop-opacity="0.25"/>
<stop offset="0.54" stop-color="#808080" stop-opacity="0.12"/>
<stop offset="1" stop-color="#808080" stop-opacity="0.1"/>
</linearGradient>
<clipPath id="clip0_1_782">
<rect width="300" height="171.115" fill="white" transform="translate(0 0.495605)"/>
</clipPath>
</defs>
</svg>
